<svg width="328" height="104" viewBox="0 0 328 104" fill="none" xmlns="http://www.w3.org/2000/svg">
<mask id="path-1-outside-1_2494_405" maskUnits="userSpaceOnUse" x="0.09375" y="0.0625" width="328" height="104" fill="black">
<rect fill="white" x="0.09375" y="0.0625" width="328" height="104"/>
<path d="M49.5312 64.5C49.5312 65.625 48.5625 66.1875 46.625 66.1875C45.6875 66.1875 44.8125 66.0625 44 65.8125C43.25 65.5 42.7812 65.25 42.5938 65.0625L43.5312 53.0625C37.7812 58 33.5938 61.0938 30.9688 62.3438C26.8438 64.4062 22.625 65.4375 18.3125 65.4375C17.5 65.4375 16.6562 65.4062 15.7812 65.3438C6.65625 64.3438 2.09375 58.5 2.09375 47.8125C2.09375 42.9375 3.34375 34.6562 5.84375 22.9688C6.65625 19.3438 7.1875 16.0312 7.4375 13.0312C7.625 12.9688 8.03125 12.9375 8.65625 12.9375C8.65625 12.9375 9.03125 12.9375 9.78125 12.9375C10.0938 12.875 10.375 12.8438 10.625 12.8438C12.625 12.8438 13.625 14.3438 13.625 17.3438C13.625 19.4062 13.2188 21.9688 12.4062 25.0312C9.90625 35.0938 8.65625 42.0625 8.65625 45.9375C8.65625 50 9.71875 53.1875 11.8438 55.5C13.2188 57 15.375 57.9062 18.3125 58.2188C18.6875 58.2188 19.0625 58.2188 19.4375 58.2188C29.625 58.2188 36.3125 53.3125 39.5 43.5C41.375 37.75 42.4688 30.8125 42.7812 22.6875C42.9688 18.9375 43.125 15.2188 43.25 11.5312C43.9375 9.65625 44.875 8.71875 46.0625 8.71875C47.25 8.71875 48.5625 9.25 50 10.3125C50.1875 13.9375 50.2812 17.5 50.2812 21L49.3438 56.8125C49.3438 59.375 49.4062 61.9375 49.5312 64.5Z"/>
<path d="M93.5 50.4375C88.8125 57.8125 82.5625 62.375 74.75 64.125C72.9375 64.5 71.2812 64.6875 69.7812 64.6875C68.3438 64.6875 67.125 64.6875 66.125 64.6875C65.1875 64.625 64.125 64.4688 62.9375 64.2188C61.75 63.9688 60.6562 63.5625 59.6562 63C57.3438 61.6875 56.1875 59.8438 56.1875 57.4688C55.9375 56.3438 55.8125 55.0938 55.8125 53.7188C55.8125 52.2812 56.125 50.4062 56.75 48.0938C57.375 45.7812 58.5 43.2812 60.125 40.5938C61.8125 37.9062 63.8438 35.4375 66.2188 33.1875C71.1562 28.4375 76.5 25.375 82.25 24C83.9375 23.625 85.4688 23.4375 86.8438 23.4375C88.2812 23.4375 89.5625 23.5312 90.6875 23.7188C94.3125 23.7188 96.75 26.1875 98 31.125C98.8125 34.25 99.2812 38.625 99.4062 44.25C99.5938 49.8125 99.75 54.125 99.875 57.1875C100.062 60.1875 100.469 62.9375 101.094 65.4375H95.5625C95.3125 63.75 95.125 62.25 95 60.9375C94.875 59.625 94.75 58.4062 94.625 57.2812C94.3125 54.6562 93.9375 52.375 93.5 50.4375ZM93.125 35.9062C93.125 32.2812 91.3438 30.4688 87.7812 30.4688C87.3438 30.4062 86.9062 30.375 86.4688 30.375C81.9062 30.375 77.0938 32.5625 72.0312 36.9375C69.6562 38.9375 67.625 41.1875 65.9375 43.6875C63.4375 47.25 62.1875 50.4375 62.1875 53.25C62.1875 56.9375 64.3125 59.125 68.5625 59.8125C74.1875 59.6875 79.5625 57.125 84.6875 52.125C86.875 49.9375 88.6875 47.5625 90.125 45C92.125 41.5625 93.125 38.5312 93.125 35.9062Z"/>
<path d="M107.188 29.625C107.062 26.25 106.938 23.25 106.812 20.625C106.688 17.9375 106.594 15.9688 106.531 14.7188C106.531 13.4062 106.031 10.25 105.031 5.25C105.594 4.5 106.125 3.78125 106.625 3.09375C107.188 2.40625 107.969 2.0625 108.969 2.0625C111.156 2.0625 112.844 11.2812 114.031 29.7188C114.656 40.4062 114.969 51.0938 114.969 61.7812C114.969 64.6562 112.969 66.0938 108.969 66.0938L108.219 66C108.219 62.75 108.125 58.5938 107.938 53.5312C107.75 48.4688 107.594 44.0625 107.469 40.3125C107.406 36.5625 107.312 33 107.188 29.625Z"/>
<path d="M157.438 50.4375C152.75 57.8125 146.5 62.375 138.688 64.125C136.875 64.5 135.219 64.6875 133.719 64.6875C132.281 64.6875 131.062 64.6875 130.062 64.6875C129.125 64.625 128.062 64.4688 126.875 64.2188C125.688 63.9688 124.594 63.5625 123.594 63C121.281 61.6875 120.125 59.8438 120.125 57.4688C119.875 56.3438 119.75 55.0938 119.75 53.7188C119.75 52.2812 120.062 50.4062 120.688 48.0938C121.312 45.7812 122.438 43.2812 124.062 40.5938C125.75 37.9062 127.781 35.4375 130.156 33.1875C135.094 28.4375 140.438 25.375 146.188 24C147.875 23.625 149.406 23.4375 150.781 23.4375C152.219 23.4375 153.5 23.5312 154.625 23.7188C158.25 23.7188 160.688 26.1875 161.938 31.125C162.75 34.25 163.219 38.625 163.344 44.25C163.531 49.8125 163.688 54.125 163.812 57.1875C164 60.1875 164.406 62.9375 165.031 65.4375H159.5C159.25 63.75 159.062 62.25 158.938 60.9375C158.812 59.625 158.688 58.4062 158.562 57.2812C158.25 54.6562 157.875 52.375 157.438 50.4375ZM157.062 35.9062C157.062 32.2812 155.281 30.4688 151.719 30.4688C151.281 30.4062 150.844 30.375 150.406 30.375C145.844 30.375 141.031 32.5625 135.969 36.9375C133.594 38.9375 131.562 41.1875 129.875 43.6875C127.375 47.25 126.125 50.4375 126.125 53.25C126.125 56.9375 128.25 59.125 132.5 59.8125C138.125 59.6875 143.5 57.125 148.625 52.125C150.812 49.9375 152.625 47.5625 154.062 45C156.062 41.5625 157.062 38.5312 157.062 35.9062Z"/>
<path d="M178.438 28.4062C186.938 25.4688 194.281 24 200.469 24C208.344 24 213.594 26.0625 216.219 30.1875C217.406 32.125 218 34.2188 218 36.4688C218 39.5938 217 42.8125 215 46.125C213.062 49.4375 210.469 52.4375 207.219 55.125C199.656 61.3125 190.469 65.1562 179.656 66.6562C179.656 67.3438 179.656 68.4375 179.656 69.9375C179.719 71.5 179.75 73.2188 179.75 75.0938C179.812 76.9688 179.844 78.9688 179.844 81.0938C179.906 83.2188 179.969 85.25 180.031 87.1875C180.219 92 180.344 94.75 180.406 95.4375C180.531 96.125 180.594 96.6875 180.594 97.125C180.594 98.6875 180.094 99.8438 179.094 100.594C178.094 101.406 176.781 101.812 175.156 101.812C174.844 101.812 174.531 101.812 174.219 101.812L172.719 26.4375C173.281 25.625 174.031 25.25 174.969 25.3125C175.906 25.375 176.656 25.625 177.219 26.0625C177.781 26.5 178.188 27.2812 178.438 28.4062ZM205.812 31.6875C203.75 30.625 201.531 30.0938 199.156 30.0938C196.844 30.0938 194.531 30.3125 192.219 30.75C186.969 31.75 183.094 33.9688 180.594 37.4062C179.469 39.0312 178.906 41.0312 178.906 43.4062C178.906 43.6562 178.906 43.9062 178.906 44.1562V60.375C191.781 57.5 200.906 53.5 206.281 48.375C209.406 45.4375 210.969 42.4062 210.969 39.2812C210.969 35.9688 209.25 33.4375 205.812 31.6875Z"/>
<path d="M225.219 48.1875C225.219 40.8125 228.406 34.875 234.781 30.375C239.844 26.8125 245.938 24.6562 253.062 23.9062C253.438 23.9062 254.312 23.9062 255.688 23.9062C257.062 23.9062 258.906 24.3125 261.219 25.125C266.344 26.875 269.844 29.9688 271.719 34.4062C272.469 36.1562 272.844 37.6562 272.844 38.9062C272.844 40.0938 272.812 40.9375 272.75 41.4375C272.75 49.25 269.781 55.4062 263.844 59.9062C258.344 64.0312 251.469 66.0938 243.219 66.0938C237.281 66.0938 232.781 64.7188 229.719 61.9688C226.719 59.2188 225.219 54.625 225.219 48.1875ZM231.688 50.4375C231.688 54.3125 232.719 56.9375 234.781 58.3125C236.344 59.3125 238.969 59.8125 242.656 59.8125C246.344 59.8125 249.594 59.5312 252.406 58.9688C255.219 58.4062 257.719 57.4375 259.906 56.0625C264.594 53.0625 266.938 48.4062 266.938 42.0938C266.938 38.3438 265.938 35.2812 263.938 32.9062C261.75 30.3438 258.875 29.0625 255.312 29.0625C252.875 29.5 250.406 29.9688 247.906 30.4688C245.469 30.9688 243.156 31.9375 240.969 33.375C236.219 36.4375 233.125 42.125 231.688 50.4375Z"/>
<path d="M285.875 28.4062C294.375 25.4688 301.719 24 307.906 24C315.781 24 321.031 26.0625 323.656 30.1875C324.844 32.125 325.438 34.2188 325.438 36.4688C325.438 39.5938 324.438 42.8125 322.438 46.125C320.5 49.4375 317.906 52.4375 314.656 55.125C307.094 61.3125 297.906 65.1562 287.094 66.6562C287.094 67.3438 287.094 68.4375 287.094 69.9375C287.156 71.5 287.188 73.2188 287.188 75.0938C287.25 76.9688 287.281 78.9688 287.281 81.0938C287.344 83.2188 287.406 85.25 287.469 87.1875C287.656 92 287.781 94.75 287.844 95.4375C287.969 96.125 288.031 96.6875 288.031 97.125C288.031 98.6875 287.531 99.8438 286.531 100.594C285.531 101.406 284.219 101.812 282.594 101.812C282.281 101.812 281.969 101.812 281.656 101.812L280.156 26.4375C280.719 25.625 281.469 25.25 282.406 25.3125C283.344 25.375 284.094 25.625 284.656 26.0625C285.219 26.5 285.625 27.2812 285.875 28.4062ZM313.25 31.6875C311.188 30.625 308.969 30.0938 306.594 30.0938C304.281 30.0938 301.969 30.3125 299.656 30.75C294.406 31.75 290.531 33.9688 288.031 37.4062C286.906 39.0312 286.344 41.0312 286.344 43.4062C286.344 43.6562 286.344 43.9062 286.344 44.1562V60.375C299.219 57.5 308.344 53.5 313.719 48.375C316.844 45.4375 318.406 42.4062 318.406 39.2812C318.406 35.9688 316.688 33.4375 313.25 31.6875Z"/>
</mask>
<path d="M49.5312 64.5C49.5312 65.625 48.5625 66.1875 46.625 66.1875C45.6875 66.1875 44.8125 66.0625 44 65.8125C43.25 65.5 42.7812 65.25 42.5938 65.0625L43.5312 53.0625C37.7812 58 33.5938 61.0938 30.9688 62.3438C26.8438 64.4062 22.625 65.4375 18.3125 65.4375C17.5 65.4375 16.6562 65.4062 15.7812 65.3438C6.65625 64.3438 2.09375 58.5 2.09375 47.8125C2.09375 42.9375 3.34375 34.6562 5.84375 22.9688C6.65625 19.3438 7.1875 16.0312 7.4375 13.0312C7.625 12.9688 8.03125 12.9375 8.65625 12.9375C8.65625 12.9375 9.03125 12.9375 9.78125 12.9375C10.0938 12.875 10.375 12.8438 10.625 12.8438C12.625 12.8438 13.625 14.3438 13.625 17.3438C13.625 19.4062 13.2188 21.9688 12.4062 25.0312C9.90625 35.0938 8.65625 42.0625 8.65625 45.9375C8.65625 50 9.71875 53.1875 11.8438 55.5C13.2188 57 15.375 57.9062 18.3125 58.2188C18.6875 58.2188 19.0625 58.2188 19.4375 58.2188C29.625 58.2188 36.3125 53.3125 39.5 43.5C41.375 37.75 42.4688 30.8125 42.7812 22.6875C42.9688 18.9375 43.125 15.2188 43.25 11.5312C43.9375 9.65625 44.875 8.71875 46.0625 8.71875C47.25 8.71875 48.5625 9.25 50 10.3125C50.1875 13.9375 50.2812 17.5 50.2812 21L49.3438 56.8125C49.3438 59.375 49.4062 61.9375 49.5312 64.5Z" fill="#13C1AC"/>
<path d="M93.5 50.4375C88.8125 57.8125 82.5625 62.375 74.75 64.125C72.9375 64.5 71.2812 64.6875 69.7812 64.6875C68.3438 64.6875 67.125 64.6875 66.125 64.6875C65.1875 64.625 64.125 64.4688 62.9375 64.2188C61.75 63.9688 60.6562 63.5625 59.6562 63C57.3438 61.6875 56.1875 59.8438 56.1875 57.4688C55.9375 56.3438 55.8125 55.0938 55.8125 53.7188C55.8125 52.2812 56.125 50.4062 56.75 48.0938C57.375 45.7812 58.5 43.2812 60.125 40.5938C61.8125 37.9062 63.8438 35.4375 66.2188 33.1875C71.1562 28.4375 76.5 25.375 82.25 24C83.9375 23.625 85.4688 23.4375 86.8438 23.4375C88.2812 23.4375 89.5625 23.5312 90.6875 23.7188C94.3125 23.7188 96.75 26.1875 98 31.125C98.8125 34.25 99.2812 38.625 99.4062 44.25C99.5938 49.8125 99.75 54.125 99.875 57.1875C100.062 60.1875 100.469 62.9375 101.094 65.4375H95.5625C95.3125 63.75 95.125 62.25 95 60.9375C94.875 59.625 94.75 58.4062 94.625 57.2812C94.3125 54.6562 93.9375 52.375 93.5 50.4375ZM93.125 35.9062C93.125 32.2812 91.3438 30.4688 87.7812 30.4688C87.3438 30.4062 86.9062 30.375 86.4688 30.375C81.9062 30.375 77.0938 32.5625 72.0312 36.9375C69.6562 38.9375 67.625 41.1875 65.9375 43.6875C63.4375 47.25 62.1875 50.4375 62.1875 53.25C62.1875 56.9375 64.3125 59.125 68.5625 59.8125C74.1875 59.6875 79.5625 57.125 84.6875 52.125C86.875 49.9375 88.6875 47.5625 90.125 45C92.125 41.5625 93.125 38.5312 93.125 35.9062Z" fill="#13C1AC"/>
<path d="M107.188 29.625C107.062 26.25 106.938 23.25 106.812 20.625C106.688 17.9375 106.594 15.9688 106.531 14.7188C106.531 13.4062 106.031 10.25 105.031 5.25C105.594 4.5 106.125 3.78125 106.625 3.09375C107.188 2.40625 107.969 2.0625 108.969 2.0625C111.156 2.0625 112.844 11.2812 114.031 29.7188C114.656 40.4062 114.969 51.0938 114.969 61.7812C114.969 64.6562 112.969 66.0938 108.969 66.0938L108.219 66C108.219 62.75 108.125 58.5938 107.938 53.5312C107.75 48.4688 107.594 44.0625 107.469 40.3125C107.406 36.5625 107.312 33 107.188 29.625Z" fill="#13C1AC"/>
<path d="M157.438 50.4375C152.75 57.8125 146.5 62.375 138.688 64.125C136.875 64.5 135.219 64.6875 133.719 64.6875C132.281 64.6875 131.062 64.6875 130.062 64.6875C129.125 64.625 128.062 64.4688 126.875 64.2188C125.688 63.9688 124.594 63.5625 123.594 63C121.281 61.6875 120.125 59.8438 120.125 57.4688C119.875 56.3438 119.75 55.0938 119.75 53.7188C119.75 52.2812 120.062 50.4062 120.688 48.0938C121.312 45.7812 122.438 43.2812 124.062 40.5938C125.75 37.9062 127.781 35.4375 130.156 33.1875C135.094 28.4375 140.438 25.375 146.188 24C147.875 23.625 149.406 23.4375 150.781 23.4375C152.219 23.4375 153.5 23.5312 154.625 23.7188C158.25 23.7188 160.688 26.1875 161.938 31.125C162.75 34.25 163.219 38.625 163.344 44.25C163.531 49.8125 163.688 54.125 163.812 57.1875C164 60.1875 164.406 62.9375 165.031 65.4375H159.5C159.25 63.75 159.062 62.25 158.938 60.9375C158.812 59.625 158.688 58.4062 158.562 57.2812C158.25 54.6562 157.875 52.375 157.438 50.4375ZM157.062 35.9062C157.062 32.2812 155.281 30.4688 151.719 30.4688C151.281 30.4062 150.844 30.375 150.406 30.375C145.844 30.375 141.031 32.5625 135.969 36.9375C133.594 38.9375 131.562 41.1875 129.875 43.6875C127.375 47.25 126.125 50.4375 126.125 53.25C126.125 56.9375 128.25 59.125 132.5 59.8125C138.125 59.6875 143.5 57.125 148.625 52.125C150.812 49.9375 152.625 47.5625 154.062 45C156.062 41.5625 157.062 38.5312 157.062 35.9062Z" fill="#13C1AC"/>
<path d="M178.438 28.4062C186.938 25.4688 194.281 24 200.469 24C208.344 24 213.594 26.0625 216.219 30.1875C217.406 32.125 218 34.2188 218 36.4688C218 39.5938 217 42.8125 215 46.125C213.062 49.4375 210.469 52.4375 207.219 55.125C199.656 61.3125 190.469 65.1562 179.656 66.6562C179.656 67.3438 179.656 68.4375 179.656 69.9375C179.719 71.5 179.75 73.2188 179.75 75.0938C179.812 76.9688 179.844 78.9688 179.844 81.0938C179.906 83.2188 179.969 85.25 180.031 87.1875C180.219 92 180.344 94.75 180.406 95.4375C180.531 96.125 180.594 96.6875 180.594 97.125C180.594 98.6875 180.094 99.8438 179.094 100.594C178.094 101.406 176.781 101.812 175.156 101.812C174.844 101.812 174.531 101.812 174.219 101.812L172.719 26.4375C173.281 25.625 174.031 25.25 174.969 25.3125C175.906 25.375 176.656 25.625 177.219 26.0625C177.781 26.5 178.188 27.2812 178.438 28.4062ZM205.812 31.6875C203.75 30.625 201.531 30.0938 199.156 30.0938C196.844 30.0938 194.531 30.3125 192.219 30.75C186.969 31.75 183.094 33.9688 180.594 37.4062C179.469 39.0312 178.906 41.0312 178.906 43.4062C178.906 43.6562 178.906 43.9062 178.906 44.1562V60.375C191.781 57.5 200.906 53.5 206.281 48.375C209.406 45.4375 210.969 42.4062 210.969 39.2812C210.969 35.9688 209.25 33.4375 205.812 31.6875Z" fill="#13C1AC"/>
<path d="M225.219 48.1875C225.219 40.8125 228.406 34.875 234.781 30.375C239.844 26.8125 245.938 24.6562 253.062 23.9062C253.438 23.9062 254.312 23.9062 255.688 23.9062C257.062 23.9062 258.906 24.3125 261.219 25.125C266.344 26.875 269.844 29.9688 271.719 34.4062C272.469 36.1562 272.844 37.6562 272.844 38.9062C272.844 40.0938 272.812 40.9375 272.75 41.4375C272.75 49.25 269.781 55.4062 263.844 59.9062C258.344 64.0312 251.469 66.0938 243.219 66.0938C237.281 66.0938 232.781 64.7188 229.719 61.9688C226.719 59.2188 225.219 54.625 225.219 48.1875ZM231.688 50.4375C231.688 54.3125 232.719 56.9375 234.781 58.3125C236.344 59.3125 238.969 59.8125 242.656 59.8125C246.344 59.8125 249.594 59.5312 252.406 58.9688C255.219 58.4062 257.719 57.4375 259.906 56.0625C264.594 53.0625 266.938 48.4062 266.938 42.0938C266.938 38.3438 265.938 35.2812 263.938 32.9062C261.75 30.3438 258.875 29.0625 255.312 29.0625C252.875 29.5 250.406 29.9688 247.906 30.4688C245.469 30.9688 243.156 31.9375 240.969 33.375C236.219 36.4375 233.125 42.125 231.688 50.4375Z" fill="#13C1AC"/>
<path d="M285.875 28.4062C294.375 25.4688 301.719 24 307.906 24C315.781 24 321.031 26.0625 323.656 30.1875C324.844 32.125 325.438 34.2188 325.438 36.4688C325.438 39.5938 324.438 42.8125 322.438 46.125C320.5 49.4375 317.906 52.4375 314.656 55.125C307.094 61.3125 297.906 65.1562 287.094 66.6562C287.094 67.3438 287.094 68.4375 287.094 69.9375C287.156 71.5 287.188 73.2188 287.188 75.0938C287.25 76.9688 287.281 78.9688 287.281 81.0938C287.344 83.2188 287.406 85.25 287.469 87.1875C287.656 92 287.781 94.75 287.844 95.4375C287.969 96.125 288.031 96.6875 288.031 97.125C288.031 98.6875 287.531 99.8438 286.531 100.594C285.531 101.406 284.219 101.812 282.594 101.812C282.281 101.812 281.969 101.812 281.656 101.812L280.156 26.4375C280.719 25.625 281.469 25.25 282.406 25.3125C283.344 25.375 284.094 25.625 284.656 26.0625C285.219 26.5 285.625 27.2812 285.875 28.4062ZM313.25 31.6875C311.188 30.625 308.969 30.0938 306.594 30.0938C304.281 30.0938 301.969 30.3125 299.656 30.75C294.406 31.75 290.531 33.9688 288.031 37.4062C286.906 39.0312 286.344 41.0312 286.344 43.4062C286.344 43.6562 286.344 43.9062 286.344 44.1562V60.375C299.219 57.5 308.344 53.5 313.719 48.375C316.844 45.4375 318.406 42.4062 318.406 39.2812C318.406 35.9688 316.688 33.4375 313.25 31.6875Z" fill="#13C1AC"/>
<path d="M49.5312 64.5C49.5312 65.625 48.5625 66.1875 46.625 66.1875C45.6875 66.1875 44.8125 66.0625 44 65.8125C43.25 65.5 42.7812 65.25 42.5938 65.0625L43.5312 53.0625C37.7812 58 33.5938 61.0938 30.9688 62.3438C26.8438 64.4062 22.625 65.4375 18.3125 65.4375C17.5 65.4375 16.6562 65.4062 15.7812 65.3438C6.65625 64.3438 2.09375 58.5 2.09375 47.8125C2.09375 42.9375 3.34375 34.6562 5.84375 22.9688C6.65625 19.3438 7.1875 16.0312 7.4375 13.0312C7.625 12.9688 8.03125 12.9375 8.65625 12.9375C8.65625 12.9375 9.03125 12.9375 9.78125 12.9375C10.0938 12.875 10.375 12.8438 10.625 12.8438C12.625 12.8438 13.625 14.3438 13.625 17.3438C13.625 19.4062 13.2188 21.9688 12.4062 25.0312C9.90625 35.0938 8.65625 42.0625 8.65625 45.9375C8.65625 50 9.71875 53.1875 11.8438 55.5C13.2188 57 15.375 57.9062 18.3125 58.2188C18.6875 58.2188 19.0625 58.2188 19.4375 58.2188C29.625 58.2188 36.3125 53.3125 39.5 43.5C41.375 37.75 42.4688 30.8125 42.7812 22.6875C42.9688 18.9375 43.125 15.2188 43.25 11.5312C43.9375 9.65625 44.875 8.71875 46.0625 8.71875C47.25 8.71875 48.5625 9.25 50 10.3125C50.1875 13.9375 50.2812 17.5 50.2812 21L49.3438 56.8125C49.3438 59.375 49.4062 61.9375 49.5312 64.5Z" stroke="#13C1AC" stroke-width="4" mask="url(#path-1-outside-1_2494_405)"/>
<path d="M93.5 50.4375C88.8125 57.8125 82.5625 62.375 74.75 64.125C72.9375 64.5 71.2812 64.6875 69.7812 64.6875C68.3438 64.6875 67.125 64.6875 66.125 64.6875C65.1875 64.625 64.125 64.4688 62.9375 64.2188C61.75 63.9688 60.6562 63.5625 59.6562 63C57.3438 61.6875 56.1875 59.8438 56.1875 57.4688C55.9375 56.3438 55.8125 55.0938 55.8125 53.7188C55.8125 52.2812 56.125 50.4062 56.75 48.0938C57.375 45.7812 58.5 43.2812 60.125 40.5938C61.8125 37.9062 63.8438 35.4375 66.2188 33.1875C71.1562 28.4375 76.5 25.375 82.25 24C83.9375 23.625 85.4688 23.4375 86.8438 23.4375C88.2812 23.4375 89.5625 23.5312 90.6875 23.7188C94.3125 23.7188 96.75 26.1875 98 31.125C98.8125 34.25 99.2812 38.625 99.4062 44.25C99.5938 49.8125 99.75 54.125 99.875 57.1875C100.062 60.1875 100.469 62.9375 101.094 65.4375H95.5625C95.3125 63.75 95.125 62.25 95 60.9375C94.875 59.625 94.75 58.4062 94.625 57.2812C94.3125 54.6562 93.9375 52.375 93.5 50.4375ZM93.125 35.9062C93.125 32.2812 91.3438 30.4688 87.7812 30.4688C87.3438 30.4062 86.9062 30.375 86.4688 30.375C81.9062 30.375 77.0938 32.5625 72.0312 36.9375C69.6562 38.9375 67.625 41.1875 65.9375 43.6875C63.4375 47.25 62.1875 50.4375 62.1875 53.25C62.1875 56.9375 64.3125 59.125 68.5625 59.8125C74.1875 59.6875 79.5625 57.125 84.6875 52.125C86.875 49.9375 88.6875 47.5625 90.125 45C92.125 41.5625 93.125 38.5312 93.125 35.9062Z" stroke="#13C1AC" stroke-width="4" mask="url(#path-1-outside-1_2494_405)"/>
<path d="M107.188 29.625C107.062 26.25 106.938 23.25 106.812 20.625C106.688 17.9375 106.594 15.9688 106.531 14.7188C106.531 13.4062 106.031 10.25 105.031 5.25C105.594 4.5 106.125 3.78125 106.625 3.09375C107.188 2.40625 107.969 2.0625 108.969 2.0625C111.156 2.0625 112.844 11.2812 114.031 29.7188C114.656 40.4062 114.969 51.0938 114.969 61.7812C114.969 64.6562 112.969 66.0938 108.969 66.0938L108.219 66C108.219 62.75 108.125 58.5938 107.938 53.5312C107.75 48.4688 107.594 44.0625 107.469 40.3125C107.406 36.5625 107.312 33 107.188 29.625Z" stroke="#13C1AC" stroke-width="4" mask="url(#path-1-outside-1_2494_405)"/>
<path d="M157.438 50.4375C152.75 57.8125 146.5 62.375 138.688 64.125C136.875 64.5 135.219 64.6875 133.719 64.6875C132.281 64.6875 131.062 64.6875 130.062 64.6875C129.125 64.625 128.062 64.4688 126.875 64.2188C125.688 63.9688 124.594 63.5625 123.594 63C121.281 61.6875 120.125 59.8438 120.125 57.4688C119.875 56.3438 119.75 55.0938 119.75 53.7188C119.75 52.2812 120.062 50.4062 120.688 48.0938C121.312 45.7812 122.438 43.2812 124.062 40.5938C125.75 37.9062 127.781 35.4375 130.156 33.1875C135.094 28.4375 140.438 25.375 146.188 24C147.875 23.625 149.406 23.4375 150.781 23.4375C152.219 23.4375 153.5 23.5312 154.625 23.7188C158.25 23.7188 160.688 26.1875 161.938 31.125C162.75 34.25 163.219 38.625 163.344 44.25C163.531 49.8125 163.688 54.125 163.812 57.1875C164 60.1875 164.406 62.9375 165.031 65.4375H159.5C159.25 63.75 159.062 62.25 158.938 60.9375C158.812 59.625 158.688 58.4062 158.562 57.2812C158.25 54.6562 157.875 52.375 157.438 50.4375ZM157.062 35.9062C157.062 32.2812 155.281 30.4688 151.719 30.4688C151.281 30.4062 150.844 30.375 150.406 30.375C145.844 30.375 141.031 32.5625 135.969 36.9375C133.594 38.9375 131.562 41.1875 129.875 43.6875C127.375 47.25 126.125 50.4375 126.125 53.25C126.125 56.9375 128.25 59.125 132.5 59.8125C138.125 59.6875 143.5 57.125 148.625 52.125C150.812 49.9375 152.625 47.5625 154.062 45C156.062 41.5625 157.062 38.5312 157.062 35.9062Z" stroke="#13C1AC" stroke-width="4" mask="url(#path-1-outside-1_2494_405)"/>
<path d="M178.438 28.4062C186.938 25.4688 194.281 24 200.469 24C208.344 24 213.594 26.0625 216.219 30.1875C217.406 32.125 218 34.2188 218 36.4688C218 39.5938 217 42.8125 215 46.125C213.062 49.4375 210.469 52.4375 207.219 55.125C199.656 61.3125 190.469 65.1562 179.656 66.6562C179.656 67.3438 179.656 68.4375 179.656 69.9375C179.719 71.5 179.75 73.2188 179.75 75.0938C179.812 76.9688 179.844 78.9688 179.844 81.0938C179.906 83.2188 179.969 85.25 180.031 87.1875C180.219 92 180.344 94.75 180.406 95.4375C180.531 96.125 180.594 96.6875 180.594 97.125C180.594 98.6875 180.094 99.8438 179.094 100.594C178.094 101.406 176.781 101.812 175.156 101.812C174.844 101.812 174.531 101.812 174.219 101.812L172.719 26.4375C173.281 25.625 174.031 25.25 174.969 25.3125C175.906 25.375 176.656 25.625 177.219 26.0625C177.781 26.5 178.188 27.2812 178.438 28.4062ZM205.812 31.6875C203.75 30.625 201.531 30.0938 199.156 30.0938C196.844 30.0938 194.531 30.3125 192.219 30.75C186.969 31.75 183.094 33.9688 180.594 37.4062C179.469 39.0312 178.906 41.0312 178.906 43.4062C178.906 43.6562 178.906 43.9062 178.906 44.1562V60.375C191.781 57.5 200.906 53.5 206.281 48.375C209.406 45.4375 210.969 42.4062 210.969 39.2812C210.969 35.9688 209.25 33.4375 205.812 31.6875Z" stroke="#13C1AC" stroke-width="4" mask="url(#path-1-outside-1_2494_405)"/>
<path d="M225.219 48.1875C225.219 40.8125 228.406 34.875 234.781 30.375C239.844 26.8125 245.938 24.6562 253.062 23.9062C253.438 23.9062 254.312 23.9062 255.688 23.9062C257.062 23.9062 258.906 24.3125 261.219 25.125C266.344 26.875 269.844 29.9688 271.719 34.4062C272.469 36.1562 272.844 37.6562 272.844 38.9062C272.844 40.0938 272.812 40.9375 272.75 41.4375C272.75 49.25 269.781 55.4062 263.844 59.9062C258.344 64.0312 251.469 66.0938 243.219 66.0938C237.281 66.0938 232.781 64.7188 229.719 61.9688C226.719 59.2188 225.219 54.625 225.219 48.1875ZM231.688 50.4375C231.688 54.3125 232.719 56.9375 234.781 58.3125C236.344 59.3125 238.969 59.8125 242.656 59.8125C246.344 59.8125 249.594 59.5312 252.406 58.9688C255.219 58.4062 257.719 57.4375 259.906 56.0625C264.594 53.0625 266.938 48.4062 266.938 42.0938C266.938 38.3438 265.938 35.2812 263.938 32.9062C261.75 30.3438 258.875 29.0625 255.312 29.0625C252.875 29.5 250.406 29.9688 247.906 30.4688C245.469 30.9688 243.156 31.9375 240.969 33.375C236.219 36.4375 233.125 42.125 231.688 50.4375Z" stroke="#13C1AC" stroke-width="4" mask="url(#path-1-outside-1_2494_405)"/>
<path d="M285.875 28.4062C294.375 25.4688 301.719 24 307.906 24C315.781 24 321.031 26.0625 323.656 30.1875C324.844 32.125 325.438 34.2188 325.438 36.4688C325.438 39.5938 324.438 42.8125 322.438 46.125C320.5 49.4375 317.906 52.4375 314.656 55.125C307.094 61.3125 297.906 65.1562 287.094 66.6562C287.094 67.3438 287.094 68.4375 287.094 69.9375C287.156 71.5 287.188 73.2188 287.188 75.0938C287.25 76.9688 287.281 78.9688 287.281 81.0938C287.344 83.2188 287.406 85.25 287.469 87.1875C287.656 92 287.781 94.75 287.844 95.4375C287.969 96.125 288.031 96.6875 288.031 97.125C288.031 98.6875 287.531 99.8438 286.531 100.594C285.531 101.406 284.219 101.812 282.594 101.812C282.281 101.812 281.969 101.812 281.656 101.812L280.156 26.4375C280.719 25.625 281.469 25.25 282.406 25.3125C283.344 25.375 284.094 25.625 284.656 26.0625C285.219 26.5 285.625 27.2812 285.875 28.4062ZM313.25 31.6875C311.188 30.625 308.969 30.0938 306.594 30.0938C304.281 30.0938 301.969 30.3125 299.656 30.75C294.406 31.75 290.531 33.9688 288.031 37.4062C286.906 39.0312 286.344 41.0312 286.344 43.4062C286.344 43.6562 286.344 43.9062 286.344 44.1562V60.375C299.219 57.5 308.344 53.5 313.719 48.375C316.844 45.4375 318.406 42.4062 318.406 39.2812C318.406 35.9688 316.688 33.4375 313.25 31.6875Z" stroke="#13C1AC" stroke-width="4" mask="url(#path-1-outside-1_2494_405)"/>
</svg>
