<svg xmlns="http://www.w3.org/2000/svg" viewBox="52 -2 292 272">
  <path
    fill="#dd0"
    fill-rule="evenodd"
    d="M237.6,145.49c-10.56-2.88-22.08-4.79-32.64-7.66c-0.96,0.96-0.96-0.96-0.96,1.91c0,1.92,31.68,41.16,48,60.3c0.96,1.92,3.84,2.87,5.76,2.87c7.68,0,29.76-29.67,29.76-35.41c0-14.36-21.12-14.36-26.88-16.27C252.96,149.31,244.32,147.4,237.6,145.49z M294.24,132.09c0-10.53-3.84-30.63-15.36-37.33l-72.96,36.37l73.92,14.36C291.36,143.57,294.24,141.66,294.24,132.09z M254.88,48.81c-3.84-2.87-8.64-6.7-10.56-6.7c-2.88,0-5.76,3.83-6.72,5.75c-10.56,23.93-36.48,70.83-36.48,72.74c0,2.87,9.6-1.91,20.16-7.66c17.28-9.57,36.48-18.18,52.8-27.75c0.96-0.96,0.96-1.92,0.96-4.79C275.04,70.83,267.36,60.3,254.88,48.81z M196.34,144.05h-2.88v39.24c0,1.92,0.96,28.72,3.84,42.12c0.96,2.87,10.56,6.7,14.4,6.7c7.68,0,30.72-8.62,30.72-21.06c0-2.87-1.92-8.61-4.8-11.49C224.18,181.38,213.62,160.32,196.34,144.05z M187.2,223.01l-0.96-78.48c-2.88,0.96-3.84,0.96-4.8,1.91C168,163.67,153.6,180.9,139.2,198.13c-2.88,3.83-7.68,10.53-7.68,12.44c0,14.36,38.4,23.93,45.12,23.93C182.4,234.5,187.2,229.71,187.2,223.01z M175.2,135.64c-3.84,0-9.6-0.95-12.48-0.95l-42.24,3.82h-15.36c-6.72,0-12.48,1.92-12.48,11.49c0,4.79,9.6,47.86,27.84,47.86c1.92,0,2.88,0,3.84-0.96c13.44-15.31,25.92-31.59,39.36-44.99c3.84-4.78,12.48-11.48,12.48-14.35C176.16,135.64,176.16,136.6,175.2,135.64z M175.95,130.88c0.97,0.06,1.85,0.08,2.73-0.25c-0.59,0.16-1.26,0.25-2.04,0.25H175.95z M120,73.45c-2.88-1.91-6.72-1.91-9.6-1.91c-10.56,11.48-16.32,31.58-16.32,44.98s14.4,12.45,24.96,12.45c2.88,0,17.28-0.96,24.96-1.92h34.56v-2.87C159.36,107.91,139.2,89.72,120,73.45z M183.84,116.61c-5.76-27.76-4.8-52.64-17.28-79.44c-5.76,0-12.48,0-16.32,2.87c-3.84,1.91-27.84,14.36-27.84,22.97c0,2.87,44.16,43.07,60.48,56.47C184.8,117.57,183.84,116.61,183.84,116.61z M224.64,33.98c-11.52-2.87-32.64-3.83-34.56-3.83c-2.88,0-5.76,0-6.72,0.96c-2.88,0.95-3.84,3.83-3.84,5.74l13.44,78.49c7.68-5.75,13.44-22.98,19.2-33.5c0.96-2.88,18.24-32.55,18.24-40.2c0-2.88,0-2.88-0.96-3.83C228.48,35.89,226.56,33.98,224.64,33.98z M192,0C117.77,0,57.6,59.99,57.6,134S117.77,268,192,268s134.4-59.99,134.4-134S266.23,0,192,0z M312.06,164.46c-1.99,6.45-4.36,12.83-6.9,19.08c-2.34,5.77-5.16,11.26-9.3,15.96c-4.06,4.62-9.01,8.33-13.75,12.21c-5.02,4.12-7.61,10.5-12.12,15.17c-4.28,4.43-10.65,6.71-15.91,9.94c-5.09,3.13-9.68,7.32-15.33,9.21c-11.67,3.93-23.94,8.03-36.02,10.22c-12.41,2.26-27.09-1.16-39.53-2.55c-12.18-1.36-23.7-6.28-34.24-12.67c-12.38-7.51-25.02-16.24-33.67-28.03c-8.01-10.92-13.39-23.7-18.57-36c-2.52-6.01-3.98-12.32-4.82-18.76c-0.9-6.93-3.56-12-4.66-18.85c-3.29-20.32,1.84-37.95,10.04-56.98c2.49-5.77,4.91-11.62,8-17.1c3.05-5.39,6.85-10.2,11.56-14.22c4.7-4.01,9.95-7.33,14.68-11.3c4.78-4.02,8.7-8.93,13.45-12.98c4.68-3.98,10.05-6.42,15.94-8.03c6.2-1.68,12.59-2.59,18.73-4.51c6.37-2,12.53-4.64,19.03-6.24c13.32-3.28,27.13-1.16,40.19,2.29c13.07,3.45,26.11,7.65,37.73,14.7c5.82,3.54,11.3,7.59,16.73,11.7c26.45,20.01,36.15,55.09,41.07,86.6C316.55,137.21,316.22,150.97,312.06,164.46z"
  />
</svg>
