<svg
  xmlns="http://www.w3.org/2000/svg"
  xml:space="preserve"
  width="384"
  height="268"
  viewBox="0 0 384 268"
>
  <g fill="#ffffffaa">
    <path
      d="M46 22v10H36q-9 0-9 26v34q0 18-6 28-5 10-10 13 5 4 11 14 5 9 5 27v34q0 25 9 25h10v10H33q-17 0-17-30v-34q0-41-16-41v-10q16 0 16-41V53q0-30 19-31zM338 21v10h10q9 0 9 25v34q0 19 6 28 5 10 10 13v1q-6 4-11 13-5 10-5 28v34q0 24-9 25h-10v10h13q18 0 17-30v-35q0-40 16-40v-10q-16 0-16-41V51q0-30-19-30z"
    />
  </g>
  <path
    fill="#d9d900"
    fill-rule="evenodd"
    d="m238 145-33-7c-1 1-1-1-1 2l54 63c7 0 30-30 30-35 0-15-22-15-27-17zm56-13c0-10-4-31-15-37l-73 36 74 14q15 0 14-13m-39-83q-7-6-11-7-4 2-6 6c-11 24-37 71-37 73s10-2 20-8q28-14 53-28l1-5q-1-14-20-31m-59 95h-3v39c0 2 1 29 4 42 1 3 11 7 15 7 7 0 30-9 30-21q0-6-4-11c-14-19-24-40-42-56m-9 79-1-78-5 1-49 65c0 14 38 23 45 23q9 1 10-11m-12-87-12-1-43 4h-15c-7 0-12 1-12 11 0 5 9 48 27 48l4-1q20-24 40-45c4-5 12-12 12-14zm1-5h3zm-56-58-10-1c-10 11-16 31-16 45s14 12 25 12l25-2h35v-3zm64 44c-6-28-5-53-17-80q-10-1-17 3c-4 2-28 14-28 23 0 3 45 43 61 56q2-2 1-2m41-83c-12-3-33-4-35-4l-7 1q-4 2-3 6l13 78c8-5 13-23 19-33 1-3 18-33 18-40l-1-4q-1-3-4-4M192 0a134 134 0 1 0 0 268 134 134 0 0 0 0-268m120 164-7 20q-3 8-9 16l-14 12q-6 7-12 15-7 6-16 10l-15 9q-18 7-36 10c-13 3-27-1-40-2q-18-3-34-13-19-10-34-28-11-17-18-36-4-9-5-19l-5-19q-3-29 10-57l8-17q5-8 12-14l15-11 13-13q7-6 16-8l19-5 19-6q20-3 40 2a142 142 0 0 1 54 27c27 20 36 55 41 86q4 21-2 41"
    clip-rule="evenodd"
  />
</svg>
