<?xml version="1.0" encoding="UTF-8" standalone="no"?>
<!-- Created with Inkscape (http://www.inkscape.org/) -->
<svg xmlns:rdf="http://www.w3.org/1999/02/22-rdf-syntax-ns#" xmlns="http://www.w3.org/2000/svg" xmlns:cc="http://creativecommons.org/ns#" xmlns:dc="http://purl.org/dc/elements/1.1/" xmlns:svg="http://www.w3.org/2000/svg" xmlns:inkscape="http://www.inkscape.org/namespaces/inkscape" xmlns:sodipodi="http://sodipodi.sourceforge.net/DTD/sodipodi-0.dtd" xmlns:ns1="http://sozi.baierouge.fr" xmlns:xlink="http://www.w3.org/1999/xlink" id="svg2" style="fill-rule:evenodd" version="1.1" viewBox="0 0 520.00002 519.99998" inkscape:version="0.91 r13725">
  <g id="g12" transform="translate(-45.819 -146.79)">
    <path id="path3001" style="fill-rule:nonzero;fill:#f9f9f9" d="m633.77 478.1a294.42 294.42 0 1 1 -588.84 0 294.42 294.42 0 1 1 588.84 0z" transform="matrix(.87390 0 0 .86426 8.1533 -5.666)"/>
    <path id="path16" style="fill:#37abc8" d="m231.66 310.96c21.831 6.8084-24.842 29.353-9.8608 13.989 3.9474-5.0351-1.4694-11.185 8.2891-12.252l0.63052-1.2268 0.94111-0.50997zm-40.7-88.183c15.918-4.7728 17.225-12.498 33.255-19.946 3.3122-7.7881 10.855-10.668 17.243-14.725-14.433 2.6766-2.8815-10.545-17.441 0.719 6.2256-10.742-19.731-3.4486-1.402-3.734-9.0497 10.244-28.169 26.718-42.459 35.002-2.4841-1.741 18.224-18.911 0.22428-4.491-5.6685 10.313-23.313 13.931-11.307 1.3088 8.6216-4.5844 5.3598-15.261 12.142-9.0966 11.194-4.8222 8.643-6.0085 19.521-11.767-9.175-2.1888-21.3 7.759-30.88 10.148 25.31-20.799-15.993-3.5157-21.304 8.845-9.3141 9.3801-31.474 28.642-9.6391 11.991 5.1728 2.788 32.129-28.725 29.419-12.219-5.9938 5.4767-8.2298 10.187-15.18 13.814-11.216 11.969 22.316-10.549 1.6823 6.2495-13.718 9.122-11.716 27.147-25.394 35.707-8.9819 2.7738-11.487 25.899-13.884 17.755-12.38-11.393 25.323-21.234 3.801-20.261-1.6363-4.2483-2.7534 6.5597-7.537-0.0775-5.9166 8.06 1.3512 18.805-10.163 16.682-10.775 0.0852 14.365-12.106-5.1479-8.6445-3.0566-1.4547-7.9761 6.4592-12.882 13.003-14.075 10.286-18.708 25.912-24.167 43.356-15.858 50.674-15.321 117.94 4.9366 165.64 44.572 104.96 140.9 168 251.18 163.35-10.374-4.2598-34.039-19.108-12.32-28.587-12.284-8.6004-6.5275-21.618-23.365-30.148 11.137-9.5857 2.4286-23.661-11.59-20.638-12.468 1.8745-19.144-13.08-32.173-6.6496-18.34 1.2138-38.312-5.2864-54.977-13.97-15.734-15.083-33.032-33.852-31.861-54.971 4.139-11.41 6.7269-18.749 3.978-29.64 13.224-11.696 18.944-30.269 36.932-30.148-3.2737-14.965 39.209-32.327 10.786-33.259-0.48735-14.631 1.4346-19.142 7.3958-33.574-1.8309-24.847 25.455 6.4787 31.907-7.8831 13.01-14.78-23.306-31.186 5.3244-27.134 11.018 0.14327 14.773-9.5686 0.36072-5.1758-11.135-0.78985-21.038 1.7924-6.783-7.537-11.507-3.3337 13.093-8.0097 0.93857-15.749-0.65693-4.4403 5.0539-6.2593-0.9265-5.7319-3.053-4.174 8.8214-9.701-1.4481-12.116 5.4455-15.588 4.7807-2.8247 8.3983-4.939 4.4036-0.87019 10.004 4.9192 2.8647 11.422 6.1575 11.158 14.195 23.868 10.523 31.635 6.5168-5.2058 19.041-9.4278 22.611-14.32-9.5618-17.914 19.264-26.66 6.4386-10.507-5.1699 12.016 9.4699 10.129-0.0696 3.0829 7.7652 1.7843 12.689-6.1801 5.8355-14.726-1.2476-11.961-14.856 10.3-17.703-3.7882-8.8792-21.335 23.304-24.405 27.183-42.565-7.7063 1.692 18.248-23.854 29.478-11.954 12.401 0.59493 36.831 15.589 11.257 12.554 0.74968-0.8439 3.8816 13.683 12.566 11.842 9.8154 2.3169-6.6736-7.0614 2.0261-6.2694-1.8443-7.099 6.486-11.761-2.3942-17.561 14.699-2.1663 2.6726 5.9806 12.435 10.447 10.118 6.8502-5.9584-23.352 8.6681-11.954 18.488-19.58-21.838-1.2646-22.566-19.106-8.183-13.898 4.83-24.237 4.7134-5.1254 3.5231 13.852 19.378 9.8486 30.197 11.872 4.836 0.97021-25.33-13.112-15.514-17.789 6.9884-2.2081 9.7015 0.0105 5.411-4.416-2.9108-5.0976-8.8238-11.136-11.611-16.423-18.379-10.254 22.726-0.19276 8.6172-10.817-6.1806 0.19237 5.0115-10.996-10.544-8.4729-11.032 7.1737-31.193-12.003-9.8834-1.1639 16.52 1.3448-17.157-14.015-25.346-15-26.327-3.1649-47.201-0.54623-72.882 2.7518-14.099 1.8107-11.721 11.957-1.1838 9.8256-2.8484 8.1466-17.155 5.9396-1.843 6.638-9.6146 4.068 19.767 5.2624 6.365 13.712 7.9094 3.729 20.402 9.8523 11.897 11.424 16.986-0.40498-12.138 13.716-12.941 20.822-11.52 4.581-21.399 16.903-26.074 12.236 8.5872 6.6027-8.3148 7.7944-12.96 5.2037-11.51-4.1447-27.916 7.2874-39.235 15.12-20.137 13.956-6.4625-22.257 8.4649-29.382zm238.92 401.72c6.4066-13.236 18.308-22.158 30.664-31.875 15.799-5.8071-10.548 22.363-19.374 25.807-3.5185 2.4243-7.0059 5.1024-11.29 6.0684zm3.015-18.843c-1.7079 18.89-28.864 19.394-37.555 33.294-8.7909 4.3979-27.589 16.817-5.3941 8.7428 56.785-20.659 86.95-50.335 105.26-69.12 41.86-42.941 68.195-107.95 66.68-178.72-1.9906-5.1766-11.648-50.64-12.994-29.067-0.15705 22.804-0.68446 45.701 1.2166 68.384-6.514 30.333-15.813-35.444-17.604-18.746-6.6748-1.6127-7.43-5.1413-15.725-9.2327-6.0603 9.2031-19.578 20.727-28.053 13.796-5.8421 17.861-20.815 2.5555-26.441-1.7285-14.223 12.058 20.193 25.654 23.99 16.289 4.5818-13.937 1.7522-10.955 10.447-5.7374 11.049 2.3416 1.8381 23.453-1.5124 33.052-9.0283 12.099-13.558 29.251-28.549 39.122-8.5286 11.155-19.559 17.203-19.449-2.8332-10.139-14.674-23.238-17.97-31.449-34.593-0.8842-12.398-11.327-15.765-14.244-8.2138-7.0673-4.6419 10.606 20.083 14.833 23.475 6.5015 18.5 18.398 31.297 36.889 36.667 1.512 24.843 40.228-38.24 30.338-5.6395-7.0432 24.302-26.089 41.638-39.032 62.568-7.55 8.638-17.922 18.86-11.657 28.239zm-37.686-6.029c8.1556 0.28531 18.913-13.708 8.6346-12.519-6.9863 0.16129-6.7732 7.6816-8.6346 12.519zm-92.705-390.42c6.6657-9.7741 12.99 1.6735 6.5999 2.2412 7.9465 9.0759-6.7972-3.0417-4.8169 11.412-2.3224-0.86017-12.562-22.788-1.783-13.653zm15.828 55.774c1.5898 9.9275-18.091 16.528-1.508 24.119-1.7275 10.176-9.7235 27.732-18.372 28.049-11.602 8.3354 14.197 7.3378 18.337 0.92368 9.5403 3.9838 7.361-4.2504 9.2609-9.4131-4.1344-11.599 13.946 1.0754 3.8487-12.639-10.285 8.8806 6.5535-9.815 13.149-6.9208-3.0148-7.8214-24.616 12.443-20.948-3.769-14.026-9.2723 22.267-26.295-3.768-20.35zm47.564 96.053c0.89577 5.5363-1.5327 14.679-5.8736 21.572 10.489 12.66 31.233-9.6403 47.284 0.0159 19.649-12.322-23.19-30.389-26.841-10.779-8.1818-6.2753 4.7312-15.172-8.5435-13.421-3.2699-0.56342-3.3075-5.9233-6.0266 2.6128zm79.058 23.033c13.116 7.1524 27.236-6.4052 11.292-14.79-6.9276-8.9169-8.9806-16.279-18.426-20.212-4.7758-1.9559 10.361-23.124-5.8989-13.399-11.315 5.1699-5.7602 20.522 0.40385 25.298 16.037 9.9409 14.396 4.2793 12.629 23.103zm-161.29 27.133c-10.759 6.8296-10.004-9.8543-5.6094-14.736-0.80275-5.5007 8.5946-19.789 5.2329-3.4727-2.4514 5.0161 4.0623 12.181 0.3765 18.209zm-66.326 6.03c7.5469 18.196 42.549-2.4858 60.989 7.35 8.8771-3.3109 14.631-1.4479 11.511 8.0848-12.781 4.6227 3.9084 11.357 8.1472 10.19 12.361 1.6789 15.415 12.871 28.89 14.267 10.55 3.1466 2.8536-23.945 21.443-14.977 3.9347 6.2291 12.715 3.0818 20.049 4.7879 12.384 4.193 18.879-10.737 30.667-8.6621 4.0527-9.2748 2.8843-37.217 1.3855-33.028-7.1679 6.5086-18.923 7.0375-28.552 11.715-4.9104-3.7103-9.5611 4.6039-11.156-8.5092-3.3601-7.2283-4.015-20.133-17.504-7.8-3.954 0.85402 12.465 9.827 9.067 14.505-8.2783-5.4125-7.4621-1.0656-8.9896 6.5993-7.6578-4.6231-13.674-24.812-24.493-33.867-11.64-5.5175-12.575-16.692-20.763-18.728-6.3543 16.761 27.839 28.132 22.402 32.994-13.63-8.3438 6.3806 15.672-11.648 14.979 0.11982 12.801-24.538-8.1638-2.7411-2.1623 15.503-9.1489-12.442-19.977-17.512-28.815-4.8578-19.679-17.705 9.8024-27.583-6.5682-1.0319 8.6918-21.491 15.357-19.489 28.601-7.3005 6.8528-13.331 9.236-24.119 9.045zm3.015-159.79c0.59221 0.16151 9.0348-14.314 7.914-5.653 20.121 2.5659-1.0782 21.694-11.682 8.668l3.768-3.015z"/>
  </g>
  <metadata>
    <rdf:RDF>
      <cc:Work>
        <dc:format>image/svg+xml</dc:format>
        <dc:type rdf:resource="http://purl.org/dc/dcmitype/StillImage"/>
        <cc:license rdf:resource="http://creativecommons.org/licenses/publicdomain/"/>
        <dc:publisher>
          <cc:Agent rdf:about="http://openclipart.org/">
            <dc:title>Openclipart</dc:title>
          </cc:Agent>
        </dc:publisher>
        <dc:title>Earth</dc:title>
        <dc:date>2012-12-17T08:31:20</dc:date>
        <dc:description>Simple Earth planet with focus on Europe. </dc:description>
        <dc:source>https://openclipart.org/detail/173813/earth-by-snagator-173813</dc:source>
        <dc:creator>
          <cc:Agent>
            <dc:title>snagator</dc:title>
          </cc:Agent>
        </dc:creator>
        <dc:subject>
          <rdf:Bag>
            <rdf:li>europe in earth</rdf:li>
            <rdf:li>planet earth</rdf:li>
          </rdf:Bag>
        </dc:subject>
      </cc:Work>
      <cc:License rdf:about="http://creativecommons.org/licenses/publicdomain/">
        <cc:permits rdf:resource="http://creativecommons.org/ns#Reproduction"/>
        <cc:permits rdf:resource="http://creativecommons.org/ns#Distribution"/>
        <cc:permits rdf:resource="http://creativecommons.org/ns#DerivativeWorks"/>
      </cc:License>
    </rdf:RDF>
  </metadata>
</svg>
