<svg id="Layer_1" enable-background="new 0 0 512 512" viewBox="0 0 512 512" xmlns="http://www.w3.org/2000/svg"><path d="m190.1 130.5c15.6-9.8 34-8.7 41.3 2.9 77.9-25.8 175.1 15.9 219.8 86.9 46.8 74.3 42.5 184.7-22.1 241.8 6.6 10.6 1.3 27.1-9.1 33.7s-27.7 4.2-34.4-6.4c-79.4 33.5-180.8-10.4-227.6-84.7-44.7-71.1-40-176.6 17-235.6-2-3.2-3-6.8-2.9-10.6 0-9.8 6.7-20.9 18-28z" fill="#eded3b"/><path d="m477 379.5c-57.3 61.9-165.1 66.2-238.5 21-60.3-37.2-99.9-111.9-95.7-181.3-24.1 58.2-18.6 131.8 15.3 185.6 46.8 74.3 148.2 118.3 227.6 84.7 6.6 10.5 23.9 12.9 34.4 6.4s15.8-23.2 9.1-33.7c24.4-21.6 40.2-50.7 47.8-82.7z" fill="#d3cf39"/><path d="m182.4 113.8-3.4-11.9c-14.5-46.2-63.2-70.7-113.2-62.2-9 1.5-36.3 3.4-36.3 3.4s12.8 23 16.3 31.1c21.5 50.3 68.2 71.8 117.7 57.4l10.3-3c6.5-1.7 10.3-8.3 8.6-14.8z" fill="#6b9337"/><path d="m182.4 113.8-3.4-12c-2.1-6.8-5.1-13.3-8.8-19.4l-8.5 4.7c-41.2 22.9-86.7 16.1-118.8-18.8 1.2 2.3 2.2 4.4 2.8 5.9 21.5 50.3 68.2 71.7 117.7 57.4l10.3-3c6.5-1.7 10.4-8.3 8.7-14.8z" fill="#59752c"/><path d="m242.2 23.9c-38.2 8.8-65.5 41.2-61.3 78.7l.8 6.8c.1.6.2 1.3.4 1.9l.2.5c.8 2.6 2.7 4.8 5.2 5.8 1.5.6 3.1.8 4.7.6l8.1-.9c39-4.5 65.7-33.3 66.1-75.1.1-6.7 2.4-26.7 2.4-26.7s-19.8 6.8-26.6 8.4z" fill="#5d8430"/><path d="m193.5 96-8.1-.6c-1.8-.1-3.5-.8-4.9-1.8-.1 3 .1 6.1.4 9.1l.8 6.8c.1.6.2 1.3.4 1.9l.1.4c.8 2.6 2.7 4.9 5.3 5.9 1.5.6 3.1.8 4.7.6l8.1-.9c34-3.9 58.5-26.3 64.6-59.6-13.8 26.5-40.2 40.7-71.4 38.2z" fill="#59752c"/><g fill="#151515"><g id="XMLID_1_"><path id="XMLID_14_" d="m242.2 422.1c-3.2-2-6.4-4.1-9.5-6.2-2.7-1.9-6.4-1.3-8.4 1.4s-1.3 6.4 1.4 8.4c3.3 2.4 6.7 4.6 10.2 6.7 1 .6 2 .9 3.1.9 2 0 4-1 5.1-2.9 1.9-2.9 1-6.5-1.9-8.3z"/><path id="XMLID_15_" d="m208 393.6c-40-45.6-40.7-105-39.1-128.5.2-3.3-2.3-6.2-5.6-6.4s-6.2 2.3-6.4 5.6c-1.7 24.9-1 88.2 42 137.2 1.7 2 3.5 3.9 5.3 5.8 1.2 1.2 2.7 1.8 4.3 1.8 1.5 0 3-.6 4.2-1.7 2.4-2.3 2.4-6.1.1-8.5-1.5-1.7-3.2-3.5-4.8-5.3z"/></g><path d="m456.3 217.2c-22.6-35.9-58.2-65.1-100.3-82.2-41.5-16.9-84.8-19.8-122.4-8.5-3.5-3.7-8-6.2-13.1-7.5 31.7-11.1 51.5-39.4 51.9-76.6.1-5.2 1.7-20.6 2.4-26.1.2-2-.6-4.1-2.2-5.4s-3.7-1.7-5.7-1c-.2.1-19.6 6.6-26 8.1-30 7-52.7 26.8-61.9 51.7-1.5-17.4 0-37 8-56.5 1.3-3.1-.2-6.6-3.3-7.8-3.1-1.3-6.6.2-7.8 3.3-8.4 20.4-10.4 40.7-9.2 58.9-7.5-8.8-16.7-16.3-27.3-22.1-21.9-12-48.4-16.2-74.7-11.7-8.6 1.5-35.4 3.4-35.7 3.4-2 .1-3.9 1.3-4.9 3.1s-1 4 0 5.8c.1.2 12.8 22.8 16 30.5 17.9 41.8 52.7 65.5 93.2 65.5 10.3 0 20.9-1.5 31.7-4.7l10.3-3c.4-.1.8-.3 1.3-.4-9.3 10.3-12.9 23.5-8.8 34.2-26.5 29-42.6 69.3-45.4 114-2.9 45.3 8 90 30.6 125.9 23.5 37.4 61.6 68.5 104.4 85.2 23.4 9.2 47.2 13.8 70 13.8 19.7 0 38.7-3.4 56.3-10.2 4.2 4.2 10 7.2 16.6 8.3 8.2 1.4 16.5-.1 22.8-4.1s11.3-10.8 13.6-18.8c1.9-6.5 1.7-13-.3-18.6 29.7-28 48-68.8 51.5-115.4 3.5-46-8-93.7-31.6-131.1zm-212.7-187.5c4-.9 11.9-3.4 18.2-5.5-.7 6.3-1.4 14.1-1.4 18-.4 37.8-24.3 65-60.8 69.2l-8.1.9c-1 .1-1.9-.1-2.6-.7-.4-.3-1-1-1.1-1.9l-.9-7.8c-3.9-33.3 20-63.7 56.7-72.2zm-71.5 93.2-10.3 3c-47.3 13.7-90.6-7.5-110.5-54-2.2-5.2-8-15.9-12.1-23.4 8.9-.7 21.7-1.8 27.5-2.8 49.6-8.4 94.6 16.8 107 60l2.9 9.9c.9 3-1.1 6.3-4.5 7.3zm303.9 224.4c-3.4 45.2-21.4 84.4-50.8 110.4-2.2 1.9-2.7 5.2-1.1 7.7 2.2 3.5 2.6 8.4 1.2 13.5-1.5 5.1-4.6 9.6-8.4 12s-9.2 3.3-14.4 2.4-9.5-3.4-11.7-6.9c-1.6-2.5-4.7-3.5-7.4-2.3-36.1 15.2-79.3 14.5-121.5-2-40.5-15.8-76.5-45.2-98.7-80.4-21.3-33.8-31.5-76-28.7-118.7 2.8-43.4 18.7-82.3 45-109.5 1.9-2 2.2-5 .8-7.4-5.4-8.6.6-22.6 13.1-30.5 6.1-3.8 12.7-5.7 18.5-5.7 6.3 0 11.7 2.3 14.6 6.8 1.5 2.3 4.3 3.4 7 2.5 35.8-11.9 77.8-9.4 118.2 7 39.8 16.1 73.4 43.6 94.7 77.4 22 35.2 32.8 80.3 29.6 123.7z"/></g></svg>