<?xml version="1.0" encoding="utf-8"?>
<!-- Generator: Adobe Illustrator 23.0.3, SVG Export Plug-In . SVG Version: 6.00 Build 0)  -->
<svg version="1.1" id="Layer_1" xmlns="http://www.w3.org/2000/svg" xmlns:xlink="http://www.w3.org/1999/xlink" x="0px" y="0px"
	 viewBox="0 0 296 89.7" style="enable-background:new 0 0 296 89.7;" xml:space="preserve">
<style type="text/css">
	.st0{fill:#FFFFFF;}
</style>
<g>
	<g>
		<path class="st0" d="M91.3,36.5c4-14.6,6.6-23.6,7.4-27.3c0.2,1.1,0.5,2.5,1.1,4.3c0.5,1.7,2.6,9.5,6.6,23.2h-15V36.5z
			 M126.8,59.8L106.3,0H90.9L70.5,59.8H84l4.1-13.3h21l4.1,13.3H126.8z"/>
		<polygon class="st0" points="182.2,0 169.8,0 169.8,23.3 146.8,23.3 146.8,0 134.4,0 134.4,59.8 146.8,59.8 146.8,33.3 
			169.8,33.3 169.8,59.8 182.2,59.8 		"/>
		<path class="st0" d="M217.6,33.3c7.2,0,10.9,2.6,10.9,8c0,2.9-0.9,5.2-2.6,6.6c-1.7,1.5-4.3,2.1-7.8,2.1h-8.4V33.3H217.6z
			 M209.7,10h6.7c3.7,0,6.4,0.5,8.1,1.5c1.7,1.1,2.6,2.6,2.6,4.9c0,2.5-0.8,4.3-2.3,5.2c-1.5,1.1-4.1,1.5-7.7,1.5h-7.5L209.7,10
			L209.7,10z M197.2,59.8h22.4c6.7,0,12.1-1.5,16.1-4.6c4-3.1,6-7.4,6-13c0-3.8-0.9-7.1-2.6-9.4c-1.7-2.3-4.4-4-8.1-4.8v-0.5
			c2.8-0.5,4.9-1.7,6.6-4c1.7-2.3,2.5-5.1,2.5-8.6c0-5.2-2-8.9-5.8-11.3c-3.8-2.5-10-3.5-18.4-3.5h-18.7v59.7L197.2,59.8L197.2,59.8
			z"/>
		<path class="st0" d="M285.1,11.2c2.3,0.8,4.4,1.7,6.7,2.8l4.1-9.8c-5.8-2.8-11.7-4-17.3-4c-5.7,0-10.6,1.2-14.7,3.7
			c-4.3,2.5-7.5,6-9.7,10.4c-2.3,4.6-3.4,9.8-3.4,15.9c0,9.7,2.3,17,6.7,22.1c4.6,5.1,11.2,7.7,19.8,7.7c6,0,11.5-0.9,16.3-2.9V46.9
			c-6,2.1-11,3.1-15.2,3.1c-10,0-15-6.6-15-19.8c0-6.3,1.4-11.2,3.8-14.7c2.6-3.5,6.3-5.4,11-5.4C280.8,10,283,10.4,285.1,11.2z"/>
	</g>
	<g>
		<polygon class="st0" points="43.6,61.3 30.1,46.3 38,23 44.6,3.7 64.4,0 		"/>
		<polygon class="st0" points="24.5,7.5 0,12.4 13.8,28.1 38,23 		"/>
	</g>
	<g>
		<path class="st0" d="M140.6,74.1c0.6-0.8,1.5-1.2,2.8-1.2s2.1,0.5,2.8,1.2c0.6,0.8,0.9,2,0.9,3.4c0,1.5-0.3,2.8-0.9,3.5
			c-0.6,0.8-1.5,1.2-2.8,1.2s-2.1-0.5-2.8-1.2c-0.6-0.8-0.9-2-0.9-3.5S140,74.8,140.6,74.1z M147.5,73c-1.1-1.1-2.3-1.7-4.1-1.7
			s-3.1,0.6-4.1,1.7c-0.9,1.1-1.5,2.6-1.5,4.4c0,1.2,0.2,2.3,0.8,3.2c0.5,0.9,1.1,1.7,2,2.1c0.8,0.5,1.8,0.8,2.9,0.8
			c1.8,0,3.1-0.5,4.1-1.7c1.1-1.1,1.5-2.6,1.5-4.4S148.5,74.1,147.5,73z"/>
		<path class="st0" d="M162.3,83.6v-7.8c0-1.5-0.5-2.6-1.1-3.4c-0.8-0.8-1.8-1.1-3.2-1.1c-0.8,0-1.5,0.2-2.3,0.5
			c-0.6,0.3-1.2,0.8-1.5,1.4H154l-0.3-1.8h-1.5v12.3h1.8v-6.3c0-1.5,0.3-2.8,0.9-3.4c0.6-0.6,1.5-1.1,2.8-1.1c0.9,0,1.7,0.3,2.1,0.8
			c0.5,0.5,0.6,1.2,0.6,2.1v7.8L162.3,83.6L162.3,83.6z"/>
		<rect x="166.3" y="65.2" class="st0" width="1.8" height="18.4"/>
		<path class="st0" d="M172.4,69.5c0.2,0.3,0.5,0.5,0.8,0.5s0.6-0.2,0.8-0.5s0.3-0.6,0.3-1.2s-0.2-0.9-0.3-1.2s-0.5-0.5-0.8-0.5
			s-0.6,0.2-0.8,0.5c-0.2,0.3-0.3,0.6-0.3,1.2S172.2,69.2,172.4,69.5z M174.2,71.3h-1.8v12.3h1.8V71.3z"/>
		<path class="st0" d="M188.3,83.6v-7.8c0-1.5-0.5-2.6-1.1-3.4c-0.8-0.8-1.8-1.1-3.2-1.1c-0.8,0-1.5,0.2-2.3,0.5
			c-0.6,0.3-1.2,0.8-1.5,1.4h-0.2l-0.3-1.8h-1.5v12.3h1.8v-6.3c0-1.5,0.3-2.8,0.9-3.4c0.6-0.6,1.5-1.1,2.8-1.1
			c0.9,0,1.7,0.3,2.1,0.8c0.5,0.5,0.6,1.2,0.6,2.1v7.8L188.3,83.6L188.3,83.6z"/>
		<path class="st0" d="M198.6,73.6c0.5,0.5,0.8,1.2,0.8,2.3h-6c0.2-0.9,0.5-1.7,0.9-2.3c0.6-0.5,1.2-0.8,2.1-0.8
			S198.2,73.2,198.6,73.6z M199.1,83.4c0.6-0.2,1.2-0.3,1.7-0.6v-1.5c-1.2,0.6-2.5,0.8-3.7,0.8c-1.2,0-2.1-0.5-2.8-1.2
			c-0.6-0.8-0.9-2-1.1-3.4h8v-1.1c0-1.5-0.5-2.8-1.2-3.7c-0.9-0.9-2-1.4-3.5-1.4c-1.5,0-2.8,0.6-3.7,1.7c-0.9,1.1-1.4,2.6-1.4,4.6
			s0.5,3.4,1.5,4.4c1.1,1.1,2.3,1.5,4.1,1.5C197.7,83.6,198.5,83.6,199.1,83.4z"/>
		<path class="st0" d="M218.4,73.9c0.5,0.8,0.8,1.8,0.8,3.4s-0.3,2.6-0.8,3.5c-0.6,0.8-1.4,1.2-2.5,1.2c-1.2,0-2.1-0.3-2.8-1.1
			s-0.9-1.8-0.9-3.5s0.3-2.8,0.8-3.5c0.5-0.8,1.4-1.1,2.6-1.1C217,72.9,217.8,73.3,218.4,73.9z M212.4,73.2L212.4,73.2
			c0-0.9,0-1.8,0-2.9v-4.9h-1.8v18.4h1.4l0.5-1.7h0.2c0.5,0.6,0.9,1.1,1.7,1.4c0.6,0.3,1.4,0.5,2.1,0.5c1.5,0,2.8-0.5,3.7-1.5
			c0.9-1.1,1.4-2.6,1.4-4.6s-0.5-3.5-1.4-4.4c-0.9-1.1-2.1-1.5-3.7-1.5C214.4,71.3,213.2,71.9,212.4,73.2z"/>
		<path class="st0" d="M225.9,81.6c-0.5-0.3-0.6-0.8-0.6-1.5c0-0.8,0.3-1.4,0.9-1.8c0.6-0.5,1.7-0.6,2.9-0.6h1.7v1.1
			c0,1.1-0.3,2-0.9,2.6c-0.6,0.6-1.4,0.9-2.6,0.9C226.8,82.1,226.4,81.9,225.9,81.6z M232.8,83.6v-8.3c0-1.4-0.3-2.5-1.1-3.1
			c-0.6-0.6-1.7-0.9-3.1-0.9c-0.8,0-1.4,0.2-2.1,0.3s-1.4,0.5-1.8,0.8l0.6,1.4c1.2-0.6,2.3-0.9,3.2-0.9c0.9,0,1.5,0.2,1.8,0.6
			c0.3,0.5,0.6,1.1,0.6,1.8v0.6h-2c-3.8,0.2-5.7,1.4-5.7,4c0,1.2,0.3,2.1,0.9,2.8c0.6,0.6,1.5,0.9,2.8,0.9c0.9,0,1.7-0.2,2.1-0.5
			c0.6-0.3,1.2-0.8,1.7-1.4h0.2l0.3,1.8L232.8,83.6L232.8,83.6z"/>
		<path class="st0" d="M246.6,83.6v-7.8c0-1.5-0.5-2.6-1.1-3.4c-0.8-0.8-1.8-1.1-3.2-1.1c-0.8,0-1.5,0.2-2.1,0.5s-1.2,0.8-1.5,1.4
			h-0.2l-0.3-1.8h-1.5v12.3h1.8v-6.3c0-1.5,0.3-2.8,0.9-3.4c0.6-0.6,1.5-1.1,2.8-1.1c0.9,0,1.7,0.3,2.1,0.8c0.5,0.5,0.6,1.2,0.6,2.1
			v7.8L246.6,83.6L246.6,83.6z"/>
		<path class="st0" d="M252.1,77c0-0.9,0.2-1.5,0.2-2v-9.8h-1.8v18.4h1.8v-4.9l1.4-1.2l4.4,6.1h2.3l-5.4-7.1l5.1-5.2h-2.3l-4.1,4
			C253.2,76.1,252.6,76.5,252.1,77L252.1,77z"/>
		<path class="st0" d="M262.9,69.5c0.2,0.3,0.5,0.5,0.8,0.5c0.3,0,0.6-0.2,0.8-0.5s0.3-0.6,0.3-1.2s-0.2-0.9-0.3-1.2
			s-0.5-0.5-0.8-0.5c-0.3,0-0.6,0.2-0.8,0.5c-0.2,0.3-0.3,0.6-0.3,1.2S262.7,69.2,262.9,69.5z M264.7,71.3h-1.8v12.3h1.8V71.3z"/>
		<path class="st0" d="M278.8,83.6v-7.8c0-1.5-0.5-2.6-1.1-3.4c-0.8-0.8-1.8-1.1-3.2-1.1c-0.8,0-1.5,0.2-2.1,0.5s-1.2,0.8-1.5,1.4
			h-0.2l-0.3-1.8h-1.5v12.3h1.8v-6.3c0-1.5,0.3-2.8,0.9-3.4c0.6-0.6,1.5-1.1,2.8-1.1c0.9,0,1.7,0.3,2.1,0.8c0.5,0.5,0.6,1.2,0.6,2.1
			v7.8L278.8,83.6L278.8,83.6z"/>
		<path class="st0" d="M284.5,73.5c0.5-0.5,1.1-0.6,2-0.6c1.8,0,2.6,0.8,2.6,2.3s-0.9,2.3-2.6,2.3c-0.9,0-1.5-0.2-2-0.6
			c-0.5-0.5-0.6-0.9-0.6-1.7S284,73.9,284.5,73.5z M283.6,84.2c0.5-0.5,1.1-0.6,2-0.6h2.1c1.1,0,1.8,0.2,2.1,0.5
			c0.5,0.3,0.6,0.8,0.6,1.5c0,0.8-0.3,1.5-1.1,2s-1.8,0.8-3.4,0.8c-1.1,0-1.8-0.2-2.3-0.5c-0.5-0.5-0.8-0.9-0.8-1.5
			C282.8,85.3,283.1,84.7,283.6,84.2z M288.2,71.3h-1.7c-1.4,0-2.6,0.3-3.4,1.1c-0.8,0.8-1.2,1.7-1.2,2.9c0,0.8,0.2,1.5,0.6,2
			c0.5,0.6,0.9,1.1,1.5,1.2c-0.6,0.3-0.9,0.8-1.1,1.1c-0.2,0.5-0.3,0.8-0.3,1.4c0,0.5,0.2,0.8,0.3,1.2c0.2,0.3,0.5,0.6,0.8,0.8
			c-0.9,0.2-1.5,0.6-2,1.2c-0.5,0.6-0.6,1.2-0.6,2c0,1.1,0.5,2,1.2,2.6c0.9,0.6,2,0.9,3.7,0.9c2,0,3.5-0.5,4.6-1.1
			c1.1-0.8,1.7-1.8,1.7-3.2c0-1.1-0.3-2-1.1-2.5c-0.8-0.6-1.7-0.9-2.9-0.9h-2.1c-0.6,0-1.1-0.2-1.4-0.3c-0.3-0.2-0.5-0.5-0.5-0.9
			c0-0.8,0.5-1.4,1.2-2c0.3,0,0.6,0.2,0.9,0.2c1.4,0,2.5-0.3,3.2-1.1c0.8-0.6,1.2-1.7,1.2-2.8c0-0.5-0.2-0.9-0.3-1.4
			c-0.2-0.5-0.3-0.8-0.6-0.9l2.3-0.3v-1.2L288.2,71.3L288.2,71.3z"/>
	</g>
</g>
</svg>
