<?xml version="1.0" encoding="utf-8"?>
<!-- Generator: Adobe Illustrator 23.0.3, SVG Export Plug-In . SVG Version: 6.00 Build 0)  -->
<svg version="1.1" id="Layer_1" xmlns="http://www.w3.org/2000/svg" xmlns:xlink="http://www.w3.org/1999/xlink" x="0px" y="0px"
	 viewBox="0 0 163 48.5" style="enable-background:new 0 0 163 48.5;" xml:space="preserve">
<style type="text/css">
	.st0{fill-rule:evenodd;clip-rule:evenodd;fill:#FFFFFF;}
</style>
<g>
	<g>
		<path class="st0" d="M50.3,20.1c2.2-8,3.6-13,4.1-15c0.1,0.6,0.3,1.4,0.6,2.3c0.3,1,1.5,5.2,3.6,12.7H50.3z M69.8,32.9L58.5,0
			h-8.4L38.8,32.9h7.4l2.3-7.3h11.5l2.3,7.3H69.8z"/>
		<polygon class="st0" points="100.4,0 93.5,0 93.5,12.8 80.8,12.8 80.8,0 73.9,0 73.9,32.9 80.8,32.9 80.8,18.3 93.5,18.3 
			93.5,32.9 100.4,32.9 		"/>
		<path class="st0" d="M119.9,18.3c4,0,6,1.5,6,4.4c0,1.6-0.5,2.8-1.4,3.6c-0.9,0.8-2.4,1.2-4.3,1.2h-4.7v-9.1H119.9z M115.5,5.5
			h3.8c2,0,3.5,0.3,4.5,0.8c0.9,0.6,1.4,1.5,1.4,2.7c0,1.4-0.5,2.3-1.3,2.9c-0.8,0.6-2.3,0.9-4.2,0.9h-4.2V5.5z M108.6,32.9h12.4
			c3.7,0,6.7-0.8,8.9-2.5c2.2-1.7,3.3-4.1,3.3-7.1c0-2.1-0.5-3.9-1.4-5.2c-0.9-1.3-2.4-2.2-4.5-2.7v-0.2c1.5-0.2,2.7-1,3.6-2.2
			c0.9-1.2,1.4-2.8,1.4-4.7c0-2.8-1.1-4.9-3.2-6.2s-5.5-2-10.2-2h-10.3V32.9z"/>
		<path class="st0" d="M157.1,6.1c1.3,0.4,2.5,0.9,3.7,1.5l2.3-5.4c-3.2-1.5-6.4-2.2-9.6-2.2c-3.1,0-5.8,0.7-8.1,2
			c-2.3,1.3-4.1,3.3-5.3,5.8c-1.3,2.5-1.9,5.4-1.9,8.7c0,5.3,1.3,9.3,3.8,12.1c2.5,2.8,6.2,4.2,10.9,4.2c3.3,0,6.3-0.5,9-1.6v-5.6
			c-3.3,1.1-6.1,1.7-8.4,1.7c-5.5,0-8.2-3.6-8.2-10.9c0-3.5,0.7-6.2,2.1-8.1c1.4-1.9,3.5-2.9,6.1-2.9C154.6,5.5,155.8,5.7,157.1,6.1
			z"/>
	</g>
	<g>
		<polygon class="st0" points="23.9,33.7 16.6,25.5 21,12.7 24.6,2 35.5,0 		"/>
		<polygon class="st0" points="13.5,4.1 0,6.9 7.6,15.4 21,12.6 		"/>
	</g>
	<g>
		<path class="st0" d="M77,39.8c0.3-0.4,0.8-0.6,1.5-0.6c0.7,0,1.2,0.2,1.5,0.6c0.3,0.4,0.5,1.1,0.5,1.9c0,0.9-0.2,1.5-0.5,1.9
			c-0.3,0.4-0.9,0.6-1.5,0.6c-0.7,0-1.2-0.2-1.5-0.6c-0.3-0.4-0.5-1.1-0.5-1.9C76.5,40.9,76.7,40.3,77,39.8z M80.8,39.3
			c-0.6-0.6-1.3-0.9-2.2-0.9c-1,0-1.7,0.3-2.3,0.9c-0.5,0.6-0.8,1.4-0.8,2.5c0,0.7,0.1,1.3,0.4,1.8c0.3,0.5,0.6,0.9,1.1,1.2
			c0.5,0.3,1,0.4,1.6,0.4c1,0,1.7-0.3,2.3-0.9c0.5-0.6,0.8-1.4,0.8-2.5C81.6,40.7,81.3,39.9,80.8,39.3z"/>
		<path class="st0" d="M88.9,45.1v-4.3c0-0.8-0.2-1.4-0.6-1.8c-0.4-0.4-1-0.6-1.8-0.6c-0.5,0-0.9,0.1-1.2,0.3
			c-0.4,0.2-0.7,0.4-0.8,0.8h-0.1l-0.2-1h-0.8v6.7h1v-3.5c0-0.9,0.2-1.5,0.5-1.9c0.3-0.4,0.8-0.6,1.5-0.6c0.5,0,0.9,0.1,1.1,0.4
			c0.2,0.3,0.4,0.7,0.4,1.2v4.3H88.9z"/>
		<rect x="91.1" y="35" class="st0" width="1" height="10.1"/>
		<path class="st0" d="M94.6,37.3c0.1,0.2,0.3,0.2,0.4,0.2c0.2,0,0.3-0.1,0.4-0.2c0.1-0.1,0.2-0.3,0.2-0.6c0-0.3-0.1-0.5-0.2-0.6
			c-0.1-0.1-0.3-0.2-0.4-0.2c-0.2,0-0.3,0.1-0.4,0.2c-0.1,0.1-0.2,0.3-0.2,0.6C94.4,37,94.4,37.2,94.6,37.3z M95.5,38.4h-1v6.7h1
			V38.4z"/>
		<path class="st0" d="M103.3,45.1v-4.3c0-0.8-0.2-1.4-0.6-1.8c-0.4-0.4-1-0.6-1.8-0.6c-0.5,0-0.9,0.1-1.2,0.3
			c-0.4,0.2-0.7,0.4-0.9,0.8h0l-0.2-1h-0.8v6.7h1v-3.5c0-0.9,0.2-1.5,0.5-1.9c0.3-0.4,0.8-0.6,1.5-0.6c0.5,0,0.9,0.1,1.1,0.4
			c0.2,0.3,0.4,0.7,0.4,1.2v4.3H103.3z"/>
		<path class="st0" d="M108.9,39.6c0.3,0.3,0.4,0.7,0.4,1.3h-3.3c0.1-0.5,0.2-0.9,0.5-1.2c0.3-0.3,0.7-0.5,1.2-0.5
			C108.3,39.2,108.7,39.3,108.9,39.6z M109.2,45c0.3-0.1,0.6-0.2,1-0.3v-0.9c-0.7,0.3-1.3,0.4-2,0.4c-0.7,0-1.2-0.2-1.5-0.6
			c-0.4-0.4-0.5-1-0.5-1.9h4.4v-0.6c0-0.8-0.2-1.5-0.7-2c-0.5-0.5-1.1-0.8-1.9-0.8c-0.9,0-1.6,0.3-2.1,0.9c-0.5,0.6-0.8,1.5-0.8,2.5
			c0,1.1,0.3,1.9,0.8,2.5c0.6,0.6,1.3,0.9,2.3,0.9C108.5,45.1,108.9,45.1,109.2,45z"/>
		<path class="st0" d="M119.8,39.8c0.3,0.4,0.4,1,0.4,1.9c0,0.8-0.2,1.5-0.4,1.9c-0.3,0.5-0.8,0.7-1.4,0.7c-0.7,0-1.2-0.2-1.5-0.6
			c-0.3-0.4-0.5-1-0.5-2c0-0.9,0.2-1.5,0.5-1.9c0.3-0.4,0.8-0.6,1.5-0.6C119.1,39.2,119.5,39.4,119.8,39.8z M116.5,39.3L116.5,39.3
			c0-0.5,0-1,0-1.6V35h-1v10.1h0.7l0.2-1h0.1c0.2,0.3,0.5,0.6,0.9,0.7s0.8,0.2,1.2,0.2c0.9,0,1.5-0.3,2-0.9c0.5-0.6,0.7-1.4,0.7-2.5
			c0-1.1-0.3-1.9-0.7-2.5c-0.5-0.6-1.1-0.9-2-0.9C117.7,38.4,117,38.7,116.5,39.3z"/>
		<path class="st0" d="M124,44c-0.2-0.2-0.3-0.5-0.3-0.8c0-0.5,0.2-0.8,0.5-1c0.3-0.2,0.9-0.3,1.7-0.4l0.9,0v0.6
			c0,0.6-0.2,1.1-0.5,1.4c-0.3,0.3-0.8,0.5-1.4,0.5C124.5,44.3,124.2,44.2,124,44z M127.8,45.1v-4.5c0-0.8-0.2-1.3-0.6-1.7
			c-0.4-0.3-0.9-0.5-1.7-0.5c-0.4,0-0.8,0-1.1,0.1c-0.4,0.1-0.7,0.2-1,0.4l0.3,0.8c0.7-0.3,1.3-0.5,1.8-0.5c0.5,0,0.8,0.1,1,0.3
			c0.2,0.2,0.3,0.6,0.3,1v0.4l-1.1,0c-2.1,0.1-3.1,0.8-3.1,2.2c0,0.7,0.2,1.2,0.5,1.5c0.4,0.3,0.9,0.5,1.5,0.5
			c0.5,0,0.9-0.1,1.2-0.2c0.3-0.1,0.7-0.4,1-0.8h0l0.2,1H127.8z"/>
		<path class="st0" d="M135.4,45.1v-4.3c0-0.8-0.2-1.4-0.6-1.8c-0.4-0.4-1-0.6-1.8-0.6c-0.5,0-0.9,0.1-1.2,0.3
			c-0.4,0.2-0.7,0.4-0.8,0.8h-0.1l-0.2-1h-0.8v6.7h1v-3.5c0-0.9,0.2-1.5,0.5-1.9c0.3-0.4,0.8-0.6,1.5-0.6c0.5,0,0.9,0.1,1.1,0.4
			c0.2,0.3,0.4,0.7,0.4,1.2v4.3H135.4z"/>
		<path class="st0" d="M138.5,41.5c0-0.5,0-0.9,0-1.1V35h-1v10.1h1v-2.7l0.8-0.7l2.4,3.4h1.3l-3-3.9l2.8-2.9h-1.2l-2.2,2.2
			C139,40.9,138.7,41.2,138.5,41.5L138.5,41.5z"/>
		<path class="st0" d="M144.4,37.3c0.1,0.2,0.3,0.2,0.4,0.2c0.1,0,0.3-0.1,0.4-0.2c0.1-0.1,0.2-0.3,0.2-0.6c0-0.3-0.1-0.5-0.2-0.6
			c-0.1-0.1-0.3-0.2-0.4-0.2c-0.2,0-0.3,0.1-0.4,0.2c-0.1,0.1-0.2,0.3-0.2,0.6C144.2,37,144.3,37.2,144.4,37.3z M145.3,38.4h-1v6.7
			h1V38.4z"/>
		<path class="st0" d="M153.1,45.1v-4.3c0-0.8-0.2-1.4-0.6-1.8c-0.4-0.4-1-0.6-1.8-0.6c-0.4,0-0.9,0.1-1.2,0.3
			c-0.4,0.2-0.7,0.4-0.9,0.8h-0.1l-0.2-1h-0.8v6.7h1v-3.5c0-0.9,0.2-1.5,0.5-1.9c0.3-0.4,0.8-0.6,1.5-0.6c0.5,0,0.9,0.1,1.1,0.4
			c0.2,0.3,0.4,0.7,0.4,1.2v4.3H153.1z"/>
		<path class="st0" d="M156.3,39.5c0.3-0.2,0.6-0.3,1.1-0.3c1,0,1.5,0.4,1.5,1.3c0,0.8-0.5,1.2-1.4,1.2c-0.5,0-0.8-0.1-1.1-0.3
			c-0.3-0.2-0.4-0.5-0.4-0.9C155.9,40.1,156,39.8,156.3,39.5z M155.7,45.5c0.3-0.3,0.6-0.4,1.1-0.4h1.2c0.6,0,1,0.1,1.2,0.2
			c0.2,0.2,0.3,0.4,0.3,0.8c0,0.4-0.2,0.8-0.6,1.1c-0.4,0.3-1,0.4-1.8,0.4c-0.6,0-1-0.1-1.3-0.3c-0.3-0.2-0.4-0.5-0.4-0.9
			C155.4,46,155.5,45.7,155.7,45.5z M158.3,38.4h-0.9c-0.8,0-1.4,0.2-1.9,0.6c-0.4,0.4-0.6,0.9-0.6,1.6c0,0.4,0.1,0.8,0.3,1.1
			c0.2,0.3,0.5,0.6,0.9,0.7c-0.3,0.2-0.5,0.4-0.6,0.6c-0.1,0.2-0.2,0.5-0.2,0.7c0,0.3,0,0.5,0.2,0.6c0.1,0.2,0.3,0.3,0.4,0.4
			c-0.5,0.1-0.8,0.3-1.1,0.6c-0.3,0.3-0.4,0.7-0.4,1.1c0,0.6,0.2,1.1,0.7,1.5c0.5,0.3,1.1,0.5,2,0.5c1.1,0,2-0.2,2.6-0.6
			c0.6-0.4,0.9-1,0.9-1.8c0-0.6-0.2-1.1-0.6-1.4c-0.4-0.3-0.9-0.5-1.6-0.5h-1.2c-0.4,0-0.6-0.1-0.8-0.2c-0.2-0.1-0.2-0.3-0.2-0.5
			c0-0.4,0.2-0.8,0.6-1.1c0.2,0,0.3,0,0.6,0c0.8,0,1.3-0.2,1.8-0.6c0.4-0.4,0.7-0.9,0.7-1.5c0-0.3-0.1-0.5-0.1-0.8
			c-0.1-0.2-0.2-0.4-0.3-0.5l1.2-0.2v-0.7H158.3z"/>
	</g>
</g>
</svg>
