    <svg
      width="1em" 
      height="1em"
      viewBox="0 0 38 38"
      xmlns="http://www.w3.org/2000/svg"
    >
      <path
        fill="currentColor"
        d="M19 10.5c-4.69 0-8.5 3.81-8.5 8.5 0 3.76 2.44 6.95 5.83 8.08.42.08.58-.18.58-.41 0-.2-.01-.74-.01-1.45-2.37.51-2.87-1.14-2.87-1.14-.39-.99-.95-1.25-.95-1.25-.78-.53.06-.52.06-.52.86.06 1.31.88 1.31.88.76 1.3 2 .93 2.49.71.08-.55.3-.93.54-1.14-1.89-.21-3.88-.95-3.88-4.22 0-.93.33-1.69.88-2.29-.09-.22-.38-1.1.08-2.29 0 0 .72-.23 2.36.88.68-.19 1.42-.29 2.14-.29.73 0 1.46.1 2.14.29 1.64-1.11 2.36-.88 2.36-.88.46 1.19.17 2.07.08 2.29.55.6.88 1.36.88 2.29 0 3.28-2 4.01-3.9 4.22.31.27.58.8.58 1.61 0 1.16-.01 2.1-.01 2.39 0 .23.16.49.59.41 3.38-1.13 5.82-4.32 5.82-8.08 0-4.69-3.81-8.5-8.5-8.5z"
      ></path>
    </svg>