<svg width="420" height="243" viewBox="0 0 420 243" fill="none" xmlns="http://www.w3.org/2000/svg">
<path fill="currentColor" d="M50.5268 77.0842C53.3721 61.3667 54.7947 53.508 60.0187 47.3069C67.5781 38.3336 80.7691 31.4048 96.8519 27.9598C107.966 25.5791 121.505 25.5791 148.583 25.5791H285.309C318.055 25.5791 334.428 25.5791 346.927 28.6831C365.025 33.1773 378.796 42.1092 384.551 53.0862C388.526 60.6676 386.806 70.1715 383.365 89.1793L369.473 165.916C366.628 181.634 365.205 189.492 359.981 195.693C352.422 204.667 339.231 211.596 323.148 215.041C312.034 217.421 298.495 217.421 271.418 217.421H134.691C101.945 217.421 85.5719 217.421 73.0728 214.317C54.9753 209.823 41.2045 200.891 35.4491 189.914C31.4741 182.333 33.1945 172.829 36.6354 153.821L50.5268 77.0842Z"/>
</svg>