<?xml version="1.0" encoding="utf-8"?>
<!-- Generator: Adobe Illustrator 23.0.3, SVG Export Plug-In . SVG Version: 6.00 Build 0)  -->
<svg version="1.1" id="Layer_1" xmlns="http://www.w3.org/2000/svg" xmlns:xlink="http://www.w3.org/1999/xlink" x="0px" y="0px"
	 viewBox="0 0 18 21" style="enable-background:new 0 0 18 21;" xml:space="preserve">
<style type="text/css">
	.st0{fill-rule:evenodd;clip-rule:evenodd;fill:#FFFFFF;}
	.st1{fill:#FFFFFF;}
</style>
<g>
	<path class="st0" d="M9,1c2.3,0,4.2,1.9,4.2,4.3c0,2.4-1.9,4.3-4.2,4.3c-2.3,0-4.2-1.9-4.2-4.3C4.8,2.9,6.7,1,9,1z M9,10.6
		c2.9,0,5.3-2.4,5.3-5.3c0-3-2.4-5.3-5.3-5.3C6.1,0,3.7,2.4,3.7,5.3C3.7,8.3,6.1,10.6,9,10.6z"/>
	<path class="st1" d="M9,11.9c-0.6,0-1.2,0.1-1.7,0.2c-2,0.4-3.8,1.5-5.1,3C0.8,16.8,0,18.8,0,21h1c0-1.9,0.7-3.8,1.9-5.2
		c1.2-1.4,2.8-2.3,4.6-2.7C8,13,8.5,12.9,9,12.9c4.4,0,8,3.6,8,8.1h1C18,16,14,11.9,9,11.9z"/>
</g>
</svg>
