<?xml version="1.0" encoding="utf-8"?>
<!-- Generator: Adobe Illustrator 23.0.3, SVG Export Plug-In . SVG Version: 6.00 Build 0)  -->
<svg version="1.1" id="Layer_1" xmlns="http://www.w3.org/2000/svg" xmlns:xlink="http://www.w3.org/1999/xlink" x="0px" y="0px"
	 viewBox="0 0 25 30" style="enable-background:new 0 0 25 30;" xml:space="preserve">
<style type="text/css">
	.st0{fill-rule:evenodd;clip-rule:evenodd;fill:#3D4858;}
	.st1{fill-rule:evenodd;clip-rule:evenodd;fill:#232C3B;}
	.st2{fill:#22C6CB;}
	.st3{fill:#30D8DD;}
</style>
<g>
	<path class="st0" d="M20.2,15.9c-0.8,2.7-2,5-3.9,7.2c-1.2,1.4-2.7,2.6-4.4,3.6c-1.7-1-3.1-2.2-4.4-3.6c-1.9-2.2-3.2-4.6-4-7.4
		c-0.2-0.8-0.4-1.6-0.5-2.3C3,12.1,3,10.8,3,9.3V6.7c3-0.4,5.9-1.4,8.6-2.9l0,0l0.3-0.2l0.3,0.2h0c1.9,1.1,3.9,1.9,6.1,2.5l2.2-2.3
		c0.1-0.1,0.2-0.2,0.3-0.3c-2.5-0.4-4.9-1.2-7.1-2.5c-0.6-0.3-1.1-0.7-1.7-1.1h-0.2h-0.2c-0.5,0.4-1.1,0.8-1.7,1.1
		C7.7,2.5,5,3.4,2.2,3.7C1.6,3.8,1,3.8,0.4,3.9C0,3.9,0,3.9,0,4.3v5c0,1.5,0,3,0.2,4.5c0.1,0.9,0.3,1.8,0.5,2.7
		c0.9,3.2,2.4,6.1,4.6,8.6c1.8,2.1,4,3.6,6.4,4.9c0.1,0,0.1,0,0.2,0c0.1,0,0.1,0,0.2,0c2.4-1.2,4.6-2.8,6.4-4.9
		c2.2-2.5,3.8-5.3,4.6-8.6c0.2-0.9,0.4-1.8,0.5-2.7c0.1-0.5,0.1-1,0.1-1.6L20.2,15.9z"/>
	<g>
		<path class="st1" d="M12.3,3.7L12.3,3.7c1.9,1.1,4,1.9,6.1,2.5l2.2-2.3c0.1-0.1,0.2-0.2,0.3-0.3c-2.5-0.4-4.9-1.2-7.1-2.5
			c-0.6-0.3-1.1-0.7-1.7-1.1h-0.2v3.5L12.3,3.7z"/>
		<path class="st1" d="M20.2,15.9c-0.8,2.7-2,5-3.9,7.2c-1.2,1.4-2.7,2.6-4.4,3.6V30c0.1,0,0.1,0,0.2,0c2.4-1.2,4.6-2.8,6.4-4.9
			c2.2-2.5,3.8-5.3,4.6-8.6c0.2-0.9,0.4-1.8,0.5-2.7c0.1-0.5,0.1-1,0.1-1.6L20.2,15.9z"/>
	</g>
	<path class="st2" d="M12.6,15.3c-0.2,0.2-0.4,0.3-0.6,0.3c-0.3,0-0.5-0.1-0.6-0.3l-3.6-3.7c-0.2-0.2-0.4-0.3-0.6-0.3
		c-0.3,0-0.5,0.1-0.6,0.3L5.1,13c-0.2,0.2-0.3,0.4-0.3,0.6s0.1,0.5,0.3,0.6l4.2,4.3l2,2c0.2,0.2,0.4,0.3,0.6,0.3
		c0.2,0,0.5-0.1,0.6-0.3l2-2L24.7,8.1C24.9,8,25,7.8,25,7.5S24.9,7,24.7,6.9l-1.4-1.4c-0.2-0.2-0.4-0.3-0.6-0.3
		c-0.2,0-0.5,0.1-0.6,0.3L12.6,15.3z"/>
	<path class="st3" d="M11.9,15.5c-0.2,0-0.4-0.1-0.6-0.3l-3.6-3.7c-0.2-0.2-0.4-0.3-0.6-0.3c-0.3,0-0.5,0.1-0.6,0.3L5.1,13
		c-0.2,0.2-0.3,0.4-0.3,0.6s0.1,0.5,0.3,0.6l4.2,4.3l2,2c0.1,0.2,0.4,0.3,0.6,0.3V15.5z"/>
</g>
</svg>
