<?xml version="1.0" encoding="utf-8"?>
<!-- Generator: Adobe Illustrator 22.0.1, SVG Export Plug-In . SVG Version: 6.00 Build 0)  -->
<svg version="1.1" id="Capa_1" xmlns="http://www.w3.org/2000/svg" xmlns:xlink="http://www.w3.org/1999/xlink" x="0px" y="0px"
	 viewBox="0 0 124 32" style="enable-background:new 0 0 124 32;" xml:space="preserve">
<style type="text/css">
	.st0{fill:#009DE0;}
</style>
<path class="st0" d="M65.7,12.7c0.1,0.4,0.2,0.9,0.2,1.4v5.8h-2.7v-5.8c0-0.4-0.1-0.8-0.3-1c-0.2-0.2-0.5-0.4-0.9-0.4
	c-0.3,0-0.6,0.1-0.8,0.2c-0.3,0.1-0.5,0.3-0.8,0.5v6.5h-2.7v-9.2h1.7c0.2,0,0.3,0,0.4,0.1c0.1,0.1,0.2,0.2,0.2,0.3l0.2,0.5
	c0.2-0.2,0.4-0.3,0.5-0.5c0.2-0.1,0.4-0.3,0.6-0.4c0.2-0.1,0.4-0.2,0.7-0.2c0.2-0.1,0.5-0.1,0.8-0.1c0.5,0,0.9,0.1,1.3,0.3
	c0.4,0.2,0.7,0.4,1,0.7C65.4,11.9,65.6,12.3,65.7,12.7z M55.6,17.3c-0.2,0-0.3,0-0.4,0.1c-0.1,0.1-0.2,0.2-0.4,0.3
	c-0.1,0.1-0.3,0.2-0.5,0.3c-0.2,0.1-0.4,0.1-0.8,0.1c-0.6,0-1.1-0.2-1.4-0.7s-0.5-1.1-0.5-2c0-0.4,0-0.8,0.1-1.1
	c0.1-0.3,0.2-0.6,0.4-0.8c0.2-0.2,0.4-0.4,0.6-0.5c0.2-0.1,0.5-0.2,0.9-0.2c0.3,0,0.5,0,0.7,0.1c0.2,0.1,0.3,0.1,0.5,0.2
	c0.1,0.1,0.3,0.2,0.4,0.2c0.1,0.1,0.2,0.1,0.4,0.1c0.1,0,0.2,0,0.3-0.1c0.1-0.1,0.2-0.1,0.2-0.2l0.7-1c-0.4-0.4-0.9-0.8-1.5-1
	c-0.5-0.2-1.2-0.3-1.9-0.3c-0.7,0-1.4,0.1-2,0.4c-0.6,0.2-1,0.6-1.4,1c-0.4,0.4-0.7,0.9-0.9,1.5c-0.2,0.6-0.3,1.2-0.3,1.8
	c0,0.8,0.1,1.4,0.3,2c0.2,0.6,0.5,1.1,0.9,1.5c0.4,0.4,0.8,0.7,1.3,0.9c0.5,0.2,1,0.3,1.6,0.3c0.3,0,0.6,0,1-0.1
	c0.3,0,0.7-0.1,1-0.2c0.3-0.1,0.6-0.3,1-0.5c0.3-0.2,0.6-0.5,0.9-0.8l-0.8-1C56,17.4,55.8,17.3,55.6,17.3z M75.8,13.4
	c0.2,0.6,0.3,1.2,0.3,2c0,0.7-0.1,1.4-0.3,2c-0.2,0.6-0.5,1.1-1,1.5c-0.4,0.4-0.9,0.7-1.5,0.9c-0.6,0.2-1.2,0.3-1.9,0.3
	c-0.7,0-1.3-0.1-1.9-0.3c-0.6-0.2-1.1-0.5-1.5-0.9c-0.4-0.4-0.7-0.9-1-1.5c-0.2-0.6-0.3-1.2-0.3-2c0-0.7,0.1-1.4,0.3-2
	c0.2-0.6,0.5-1.1,1-1.5c0.4-0.4,0.9-0.7,1.5-0.9c0.6-0.2,1.2-0.3,1.9-0.3c0.7,0,1.3,0.1,1.9,0.3c0.6,0.2,1.1,0.5,1.5,0.9
	C75.3,12.3,75.6,12.8,75.8,13.4z M73.3,15.4c0-0.9-0.1-1.6-0.4-2c-0.3-0.4-0.8-0.7-1.4-0.7c-0.6,0-1.1,0.2-1.4,0.7
	c-0.3,0.4-0.4,1.1-0.4,2s0.1,1.6,0.4,2s0.8,0.7,1.4,0.7c0.6,0,1.1-0.2,1.4-0.7C73.2,16.9,73.3,16.3,73.3,15.4z M120.3,17.4
	c0,1.8-1.4,3.2-3.2,3.2s-3.2-1.4-3.2-3.2s1.4-3.2,3.2-3.2S120.3,15.6,120.3,17.4z M117,17.8c0-0.1,0-0.2,0-0.3
	c0-0.1-0.1-0.1-0.1-0.2c-0.1-0.1-0.1-0.1-0.2-0.1c-0.1,0-0.1-0.1-0.2-0.1c-0.1,0-0.1,0-0.2-0.1c-0.1,0-0.1,0-0.2-0.1
	c-0.1,0-0.1-0.1-0.1-0.1c0,0,0-0.1,0-0.1c0-0.1,0-0.1,0.1-0.2c0.1,0,0.1-0.1,0.3-0.1c0.1,0,0.1,0,0.2,0c0.1,0,0.1,0,0.1,0.1
	c0,0,0.1,0,0.1,0.1c0,0,0.1,0,0.1,0c0,0,0.1,0,0.1,0c0,0,0,0,0.1-0.1l0.1-0.3c0,0-0.1-0.1-0.2-0.1c-0.1,0-0.1-0.1-0.2-0.1
	c-0.1,0-0.1,0-0.2-0.1s-0.2,0-0.2,0c-0.1,0-0.3,0-0.4,0.1c-0.1,0-0.2,0.1-0.3,0.2c-0.1,0.1-0.1,0.2-0.2,0.2c0,0.1-0.1,0.2-0.1,0.3
	c0,0.1,0,0.2,0,0.3c0,0.1,0.1,0.2,0.1,0.2c0.1,0.1,0.1,0.1,0.2,0.1c0.1,0,0.1,0.1,0.2,0.1c0.1,0,0.1,0,0.2,0.1c0.1,0,0.1,0,0.2,0.1
	c0.1,0,0.1,0.1,0.1,0.1c0,0,0,0.1,0,0.1c0,0.1,0,0.2-0.1,0.2c-0.1,0-0.1,0.1-0.3,0.1c-0.1,0-0.1,0-0.2,0c-0.1,0-0.1,0-0.2-0.1
	c0,0-0.1-0.1-0.1-0.1c0,0-0.1,0-0.1,0c0,0-0.1,0-0.1,0c0,0,0,0-0.1,0.1l-0.2,0.3c0.1,0.1,0.1,0.1,0.2,0.1c0.1,0,0.1,0.1,0.2,0.1
	c0.1,0,0.2,0.1,0.2,0.1c0.1,0,0.2,0,0.2,0c0.1,0,0.3,0,0.4-0.1c0.1,0,0.2-0.1,0.3-0.2c0.1-0.1,0.1-0.2,0.2-0.3
	C117,18.1,117,17.9,117,17.8z M118.9,18.2h-1v-2.1h-0.6v2.6h1.6V18.2z M48,13.1c0.2,0.5,0.3,1.1,0.3,1.8c0,0.2,0,0.4,0,0.5
	c0,0.1-0.1,0.2-0.1,0.3c0,0.1-0.1,0.1-0.2,0.2c-0.1,0-0.2,0-0.3,0h-5.3c0.1,0.8,0.3,1.3,0.7,1.7c0.4,0.3,0.9,0.5,1.5,0.5
	c0.3,0,0.6,0,0.8-0.1c0.2-0.1,0.4-0.2,0.6-0.3c0.2-0.1,0.3-0.2,0.5-0.3c0.1-0.1,0.3-0.1,0.5-0.1c0.2,0,0.4,0.1,0.5,0.2l0.8,1
	c-0.3,0.3-0.6,0.6-0.9,0.8c-0.3,0.2-0.7,0.4-1,0.5c-0.3,0.1-0.7,0.2-1,0.2c-0.3,0-0.7,0.1-1,0.1c-0.6,0-1.2-0.1-1.8-0.3
	c-0.6-0.2-1.1-0.5-1.5-0.9c-0.4-0.4-0.8-0.9-1-1.5c-0.2-0.6-0.4-1.3-0.4-2.1c0-0.6,0.1-1.2,0.3-1.7c0.2-0.5,0.5-1,0.9-1.4
	c0.4-0.4,0.9-0.7,1.4-1c0.6-0.2,1.2-0.4,1.9-0.4c0.6,0,1.2,0.1,1.7,0.3c0.5,0.2,0.9,0.5,1.3,0.8C47.6,12.1,47.8,12.5,48,13.1z
	 M45.9,14.3c0-0.2,0-0.4-0.1-0.6c-0.1-0.2-0.1-0.4-0.3-0.6c-0.1-0.2-0.3-0.3-0.5-0.4c-0.2-0.1-0.5-0.1-0.8-0.1
	c-0.5,0-0.9,0.1-1.2,0.4c-0.3,0.3-0.5,0.7-0.6,1.3H45.9z M80,6.7h-2.7v13.2H80V6.7z M121.9,28.3c0-0.1-0.1-0.2-0.2-0.2
	c-0.1-0.1-0.1-0.1-0.2-0.2c-0.1,0-0.2-0.1-0.3-0.1c-0.1,0-0.2,0-0.3,0.1c-0.1,0-0.2,0.1-0.2,0.2c-0.1,0.1-0.1,0.1-0.2,0.2
	c0,0.1-0.1,0.2-0.1,0.3c0,0.1,0,0.2,0.1,0.3c0,0.1,0.1,0.2,0.2,0.2c0.1,0.1,0.1,0.1,0.2,0.2c0.1,0,0.2,0.1,0.3,0.1
	c0.1,0,0.2,0,0.3-0.1c0.1,0,0.2-0.1,0.2-0.2c0.1-0.1,0.1-0.1,0.2-0.2c0-0.1,0.1-0.2,0.1-0.3C122,28.5,122,28.4,121.9,28.3z
	 M5.8,12.8l17.8-3.1l-10-4.8L5.8,12.8z M102.7,9.5c0.1-0.1,0.3-0.2,0.4-0.3l2.3-2.3h-2.6c-0.3,0-0.5,0-0.6,0.1
	c-0.1,0.1-0.3,0.2-0.4,0.4l-1.2,2.2h1.6C102.4,9.6,102.6,9.6,102.7,9.5z M103.2,10.8h-2.7v9.2h2.7V10.8z M38.5,17.8
	c-0.1,0-0.1-0.1-0.2-0.1c-0.1,0-0.1,0-0.2,0c0,0-0.1,0-0.1,0.1c-0.1,0-0.1,0.1-0.2,0.1c-0.1,0-0.2,0-0.3,0c-0.2,0-0.3-0.1-0.4-0.2
	C37,17.6,37,17.4,37,17.2v-4.5h2.2v-1.9H37V8.1h-1.4c-0.3,0-0.5,0.1-0.6,0.4l-0.5,2.2l-1.5,0.3v1.1c0,0.2,0.1,0.3,0.2,0.4
	c0.1,0.1,0.2,0.1,0.4,0.1h0.8v4.7c0,0.4,0.1,0.8,0.2,1.1c0.1,0.3,0.3,0.6,0.5,0.8c0.2,0.2,0.5,0.4,0.8,0.5c0.3,0.1,0.7,0.2,1.2,0.2
	c0.5,0,0.9-0.1,1.4-0.2c0.4-0.1,0.8-0.3,1.2-0.6L38.6,18C38.6,17.9,38.5,17.8,38.5,17.8z M28.3,12c0.7,3.7-0.3,7.4-2.4,10.2
	c-0.3,0.4-0.6,0.8-0.9,1.1c-1.6,1.7-3.7,3-6.1,3.7c-0.4,0.1-0.8,0.2-1.3,0.3c-0.4,0.1-0.9,0.1-1.3,0.2c-2.5,0.2-4.9-0.3-7-1.4
	c-0.4-0.2-0.9-0.5-1.3-0.7c-2.9-1.9-5.1-5-5.8-8.8c-0.1-0.3-0.1-0.6-0.1-0.9c-0.1-1-0.1-1.9,0-2.8C2.7,7.2,7,2.3,12.9,1.3
	c5.9-1,11.7,2.1,14.2,7.2c0.4,0.8,0.7,1.7,1,2.6C28.2,11.4,28.2,11.7,28.3,12z M26.2,11.9c-0.4-1.9-1.3-3.6-2.6-5L15.8,3
	c-0.8,0-1.7,0-2.5,0.2c-0.9,0.2-1.7,0.4-2.4,0.7l-6.1,6.2c-0.7,1.7-1,3.7-0.7,5.6l3.1-0.5l0.6,7.5c0.8,0.7,1.8,1.3,2.8,1.8l-0.8-9.8
	l4.1-0.7l2,11.5c0.4,0,0.9-0.1,1.3-0.1c0.4-0.1,0.9-0.2,1.3-0.3l-2-11.5l4.1-0.7l2.6,9.5c0.8-0.8,1.5-1.7,2-2.6l-2-7.3L26.2,11.9z
	 M108.4,29.2h1.2v-5.2h-1.2V29.2z M105,25.5c0.1,0.3,0.1,0.7,0.1,1.1c0,0.4-0.1,0.7-0.2,1.1c-0.1,0.3-0.3,0.6-0.4,0.9
	c-0.2,0.2-0.4,0.4-0.7,0.6c-0.3,0.1-0.6,0.2-0.9,0.2c-0.2,0-0.3,0-0.4,0c-0.1,0-0.2-0.1-0.4-0.1c-0.1-0.1-0.2-0.1-0.3-0.2
	c-0.1-0.1-0.2-0.2-0.3-0.3l-0.1,0.3c0,0.1-0.1,0.1-0.1,0.2c0,0-0.1,0.1-0.2,0.1h-0.8v-7.5h1.2v2.9c0.2-0.2,0.4-0.4,0.7-0.5
	c0.3-0.1,0.6-0.2,0.9-0.2c0.3,0,0.5,0.1,0.8,0.2c0.2,0.1,0.4,0.3,0.6,0.5C104.7,24.9,104.9,25.2,105,25.5z M103.8,26.6
	c0-0.3,0-0.6-0.1-0.8c0-0.2-0.1-0.4-0.2-0.5c-0.1-0.1-0.2-0.2-0.3-0.3c-0.1-0.1-0.3-0.1-0.4-0.1c-0.3,0-0.5,0.1-0.7,0.2
	c-0.2,0.1-0.4,0.3-0.5,0.5v2.3c0.1,0.2,0.3,0.3,0.5,0.4c0.2,0.1,0.3,0.1,0.5,0.1c0.2,0,0.4,0,0.5-0.1c0.2-0.1,0.3-0.2,0.4-0.3
	c0.1-0.1,0.2-0.3,0.2-0.5C103.8,27.2,103.8,26.9,103.8,26.6z M110.4,19.4l-0.2-0.5c-0.2,0.2-0.5,0.4-0.7,0.5
	c-0.2,0.1-0.4,0.3-0.7,0.4c-0.2,0.1-0.5,0.2-0.7,0.2c-0.3,0.1-0.5,0.1-0.9,0.1c-0.4,0-0.8-0.1-1.1-0.2c-0.3-0.1-0.6-0.3-0.9-0.5
	c-0.2-0.2-0.4-0.5-0.6-0.8c-0.1-0.3-0.2-0.7-0.2-1.1c0-0.3,0.1-0.7,0.2-1c0.2-0.3,0.4-0.7,0.9-0.9c0.4-0.3,1-0.5,1.6-0.7
	c0.7-0.2,1.6-0.3,2.6-0.3v-0.4c0-0.5-0.1-0.9-0.3-1.2c-0.2-0.2-0.5-0.4-0.9-0.4c-0.3,0-0.6,0-0.8,0.1c-0.2,0.1-0.4,0.1-0.6,0.2
	c-0.2,0.1-0.3,0.2-0.5,0.2c-0.2,0.1-0.3,0.1-0.5,0.1c-0.2,0-0.3,0-0.5-0.1c-0.1-0.1-0.2-0.2-0.3-0.3l-0.5-0.9
	c0.6-0.5,1.2-0.9,1.8-1.1c0.7-0.2,1.4-0.4,2.2-0.4c0.6,0,1.1,0.1,1.5,0.3c0.4,0.2,0.8,0.4,1.1,0.7c0.3,0.3,0.5,0.7,0.7,1.1
	c0.2,0.4,0.2,0.9,0.2,1.4v5.7h-1.3c-0.3,0-0.5,0-0.6-0.1C110.6,19.8,110.5,19.6,110.4,19.4z M109.9,16.2c-0.5,0-1,0-1.4,0.1
	c-0.4,0.1-0.6,0.2-0.8,0.3c-0.2,0.1-0.3,0.2-0.4,0.4c-0.1,0.1-0.1,0.3-0.1,0.4c0,0.3,0.1,0.5,0.3,0.7s0.4,0.2,0.8,0.2
	c0.4,0,0.7-0.1,0.9-0.2c0.3-0.1,0.5-0.3,0.8-0.6V16.2z M114.2,27.9c-0.1,0-0.1,0-0.2,0.1c-0.1,0-0.1,0.1-0.2,0.2
	c-0.1,0.1-0.2,0.1-0.3,0.2c-0.1,0-0.3,0.1-0.5,0.1s-0.4,0-0.5-0.1c-0.2-0.1-0.3-0.2-0.4-0.3c-0.1-0.1-0.2-0.3-0.3-0.5
	c-0.1-0.2-0.1-0.5-0.1-0.7c0-0.3,0-0.5,0.1-0.7c0.1-0.2,0.1-0.4,0.2-0.5c0.1-0.1,0.2-0.3,0.4-0.3c0.2-0.1,0.4-0.1,0.6-0.1
	c0.2,0,0.3,0,0.4,0.1c0.1,0,0.2,0.1,0.3,0.1c0.1,0,0.2,0.1,0.2,0.1c0.1,0,0.1,0.1,0.2,0.1c0.1,0,0.1,0,0.2,0c0,0,0.1-0.1,0.1-0.1
	l0.3-0.5c-0.2-0.2-0.5-0.4-0.8-0.5c-0.3-0.1-0.6-0.2-1-0.2c-0.4,0-0.8,0.1-1.1,0.2c-0.3,0.1-0.6,0.3-0.8,0.6
	c-0.2,0.2-0.4,0.5-0.5,0.8c-0.1,0.3-0.2,0.7-0.2,1.1c0,0.4,0.1,0.8,0.2,1.1c0.1,0.3,0.3,0.6,0.5,0.8c0.2,0.2,0.5,0.4,0.7,0.5
	c0.3,0.1,0.6,0.2,0.9,0.2c0.2,0,0.4,0,0.5,0c0.2,0,0.4-0.1,0.5-0.1c0.2-0.1,0.3-0.2,0.5-0.3c0.2-0.1,0.3-0.2,0.4-0.4l-0.4-0.5
	C114.4,28,114.3,27.9,114.2,27.9z M96.9,11.1h2.8v1c0,0.2,0,0.3-0.1,0.4c-0.1,0.1-0.2,0.2-0.4,0.2l-0.7,0.2c0.1,0.3,0.1,0.5,0.1,0.8
	c0,0.5-0.1,0.9-0.3,1.2c-0.2,0.4-0.5,0.7-0.8,0.9c-0.3,0.3-0.7,0.5-1.2,0.6c-0.5,0.1-0.9,0.2-1.5,0.2c-0.3,0-0.6,0-0.8-0.1
	c-0.2,0.1-0.3,0.3-0.3,0.4s0.1,0.3,0.2,0.3c0.2,0.1,0.4,0.1,0.6,0.1c0.3,0,0.6,0,0.9,0c0.3,0,0.7,0,1,0c0.4,0,0.7,0.1,1,0.2
	c0.3,0.1,0.6,0.2,0.9,0.4c0.3,0.2,0.5,0.4,0.6,0.7c0.2,0.3,0.2,0.7,0.2,1.1c0,0.4-0.1,0.8-0.3,1.2c-0.2,0.4-0.5,0.7-0.9,1.1
	c-0.4,0.3-0.9,0.6-1.4,0.7c-0.6,0.2-1.2,0.3-1.9,0.3c-0.7,0-1.3-0.1-1.9-0.2c-0.5-0.1-1-0.3-1.3-0.5c-0.3-0.2-0.6-0.5-0.8-0.8
	c-0.2-0.3-0.2-0.6-0.2-0.9c0-0.4,0.1-0.7,0.4-1c0.2-0.3,0.6-0.5,1-0.7c-0.2-0.1-0.4-0.3-0.5-0.5c-0.1-0.2-0.2-0.5-0.2-0.8
	c0-0.1,0-0.3,0.1-0.4c0-0.1,0.1-0.3,0.2-0.4c0.1-0.1,0.2-0.3,0.4-0.4c0.2-0.1,0.3-0.2,0.5-0.3c-0.5-0.3-0.9-0.6-1.1-1
	c-0.3-0.4-0.4-0.9-0.4-1.5c0-0.5,0.1-0.9,0.3-1.2c0.2-0.4,0.5-0.7,0.8-0.9c0.3-0.3,0.7-0.5,1.2-0.6c0.5-0.1,1-0.2,1.5-0.2
	c0.4,0,0.8,0,1.1,0.1C96.3,10.8,96.6,10.9,96.9,11.1z M93.6,19.5c-0.2,0.1-0.3,0.2-0.4,0.4C93.1,20,93,20.2,93,20.3
	c0,0.1,0,0.2,0.1,0.4c0.1,0.1,0.2,0.2,0.3,0.3c0.1,0.1,0.3,0.1,0.6,0.2c0.2,0,0.5,0.1,0.9,0.1c0.4,0,0.7,0,1-0.1
	c0.3,0,0.5-0.1,0.6-0.2c0.2-0.1,0.3-0.2,0.3-0.3c0.1-0.1,0.1-0.2,0.1-0.4c0-0.2,0-0.3-0.1-0.4c-0.1-0.1-0.2-0.2-0.4-0.2
	c-0.2-0.1-0.3-0.1-0.5-0.1c-0.2,0-0.4,0-0.7,0s-0.5,0-0.7,0C94.1,19.5,93.8,19.5,93.6,19.5z M96.1,13.7c0-0.4-0.1-0.7-0.3-0.9
	c-0.2-0.2-0.5-0.3-1-0.3c-0.5,0-0.8,0.1-1,0.3c-0.2,0.2-0.3,0.5-0.3,0.9c0,0.2,0,0.3,0.1,0.5c0,0.1,0.1,0.3,0.2,0.4
	c0.1,0.1,0.2,0.2,0.4,0.3c0.2,0.1,0.4,0.1,0.6,0.1c0.5,0,0.8-0.1,1-0.3C96,14.3,96.1,14,96.1,13.7z M105.9,29.2h1.2v-7.5h-1.2V29.2z
	 M109.6,22c-0.1-0.1-0.2-0.1-0.3-0.2c-0.1,0-0.2-0.1-0.3-0.1c-0.1,0-0.2,0-0.3,0.1c-0.1,0-0.2,0.1-0.2,0.2c-0.1,0.1-0.1,0.2-0.2,0.3
	c0,0.1-0.1,0.2-0.1,0.3c0,0.1,0,0.2,0.1,0.3c0,0.1,0.1,0.2,0.2,0.2c0.1,0.1,0.2,0.1,0.2,0.2s0.2,0.1,0.3,0.1c0.1,0,0.2,0,0.3-0.1
	c0.1,0,0.2-0.1,0.3-0.2c0.1-0.1,0.1-0.2,0.2-0.2c0-0.1,0.1-0.2,0.1-0.3c0-0.1,0-0.2-0.1-0.3C109.7,22.2,109.6,22.1,109.6,22z
	 M98,27.8c-0.2,0.2-0.3,0.3-0.5,0.4c-0.2,0.1-0.4,0.1-0.6,0.1c-0.3,0-0.5-0.1-0.7-0.3c-0.1-0.2-0.2-0.4-0.2-0.7v-3.3h-1.2v3.3
	c0,0.3,0,0.6,0.1,0.8c0.1,0.2,0.2,0.4,0.3,0.6c0.1,0.2,0.3,0.3,0.5,0.4c0.2,0.1,0.5,0.1,0.7,0.1c0.2,0,0.3,0,0.5-0.1
	c0.1,0,0.3-0.1,0.4-0.1c0.1-0.1,0.2-0.1,0.4-0.2c0.1-0.1,0.2-0.2,0.3-0.3l0.1,0.4c0.1,0.2,0.2,0.2,0.3,0.2h0.8v-5.2H98V27.8z
	 M90.2,17.3c-0.2,0.6-0.5,1.1-1,1.5c-0.4,0.4-0.9,0.7-1.5,0.9c-0.6,0.2-1.2,0.3-1.9,0.3c-0.7,0-1.3-0.1-1.9-0.3
	c-0.6-0.2-1.1-0.5-1.5-0.9c-0.4-0.4-0.7-0.9-1-1.5c-0.2-0.6-0.3-1.2-0.3-2c0-0.7,0.1-1.4,0.3-2c0.2-0.6,0.5-1.1,1-1.5
	c0.4-0.4,0.9-0.7,1.5-0.9c0.6-0.2,1.2-0.3,1.9-0.3c0.7,0,1.3,0.1,1.9,0.3c0.6,0.2,1.1,0.5,1.5,0.9c0.4,0.4,0.7,0.9,1,1.5
	c0.2,0.6,0.3,1.2,0.3,2C90.5,16.1,90.4,16.7,90.2,17.3z M87.7,15.4c0-0.9-0.1-1.6-0.4-2c-0.3-0.4-0.8-0.7-1.4-0.7
	c-0.6,0-1.1,0.2-1.4,0.7c-0.3,0.4-0.5,1.1-0.5,2s0.2,1.6,0.5,2c0.3,0.4,0.8,0.7,1.4,0.7c0.6,0,1.1-0.2,1.4-0.7
	C87.6,16.9,87.7,16.3,87.7,15.4z M84.4,25.4c0.1,0.3,0.2,0.6,0.2,1c0,0.1,0,0.2,0,0.2c0,0.1,0,0.1,0,0.1c0,0-0.1,0.1-0.1,0.1
	c0,0-0.1,0-0.1,0h-3.2c0,0.5,0.2,0.9,0.4,1.2c0.2,0.2,0.6,0.4,1,0.4c0.2,0,0.4,0,0.5-0.1c0.1,0,0.3-0.1,0.4-0.2
	c0.1-0.1,0.2-0.1,0.3-0.2c0.1,0,0.2-0.1,0.2-0.1c0.1,0,0.1,0,0.1,0c0,0,0.1,0,0.1,0.1l0.4,0.5c-0.1,0.2-0.3,0.3-0.5,0.4
	c-0.2,0.1-0.3,0.2-0.5,0.3c-0.2,0.1-0.4,0.1-0.6,0.1c-0.2,0-0.4,0-0.6,0c-0.4,0-0.7-0.1-1-0.2c-0.3-0.1-0.6-0.3-0.8-0.5
	c-0.2-0.2-0.4-0.5-0.5-0.9c-0.1-0.3-0.2-0.7-0.2-1.2c0-0.4,0.1-0.7,0.2-1c0.1-0.3,0.3-0.6,0.5-0.8c0.2-0.2,0.5-0.4,0.8-0.5
	c0.3-0.1,0.7-0.2,1-0.2c0.3,0,0.6,0.1,0.9,0.2c0.3,0.1,0.5,0.3,0.7,0.5C84.1,24.8,84.3,25.1,84.4,25.4z M83.4,26.1
	c0-0.2,0-0.3-0.1-0.5c0-0.1-0.1-0.3-0.2-0.4c-0.1-0.1-0.2-0.2-0.3-0.3c-0.1-0.1-0.3-0.1-0.5-0.1c-0.4,0-0.6,0.1-0.8,0.3
	c-0.2,0.2-0.3,0.5-0.4,0.9H83.4z M88.3,26.7c-0.1-0.1-0.3-0.2-0.4-0.3c-0.2-0.1-0.3-0.1-0.5-0.2c-0.2-0.1-0.3-0.1-0.5-0.1
	c-0.2,0-0.3-0.1-0.4-0.2c-0.1-0.1-0.2-0.1-0.3-0.2c-0.1-0.1-0.1-0.2-0.1-0.3c0-0.2,0.1-0.3,0.2-0.4c0.1-0.1,0.3-0.2,0.6-0.2
	c0.2,0,0.3,0,0.4,0.1c0.1,0,0.2,0.1,0.3,0.1c0.1,0,0.2,0.1,0.2,0.1c0.1,0,0.1,0.1,0.2,0.1c0.1,0,0.1,0,0.1,0c0,0,0.1-0.1,0.1-0.1
	l0.3-0.4c-0.2-0.2-0.4-0.3-0.7-0.5c-0.3-0.1-0.6-0.2-1-0.2c-0.3,0-0.6,0-0.8,0.1c-0.2,0.1-0.4,0.2-0.6,0.3c-0.2,0.1-0.3,0.3-0.4,0.5
	c-0.1,0.2-0.1,0.4-0.1,0.6c0,0.2,0,0.4,0.1,0.6c0.1,0.2,0.2,0.3,0.3,0.4c0.1,0.1,0.3,0.2,0.4,0.3s0.3,0.1,0.5,0.2
	c0.2,0.1,0.3,0.1,0.5,0.1c0.2,0,0.3,0.1,0.4,0.2c0.1,0.1,0.2,0.1,0.3,0.2c0.1,0.1,0.1,0.2,0.1,0.3c0,0.1,0,0.2,0,0.2
	c0,0.1-0.1,0.1-0.2,0.2c-0.1,0.1-0.2,0.1-0.3,0.1c-0.1,0-0.2,0.1-0.4,0.1c-0.2,0-0.3,0-0.5-0.1c-0.1,0-0.2-0.1-0.3-0.1
	c-0.1-0.1-0.2-0.1-0.2-0.1c-0.1,0-0.1-0.1-0.2-0.1c-0.1,0-0.1,0-0.2,0c-0.1,0-0.1,0.1-0.1,0.1l-0.3,0.5c0.1,0.1,0.2,0.2,0.3,0.3
	c0.1,0.1,0.3,0.1,0.4,0.2c0.2,0.1,0.3,0.1,0.5,0.1c0.2,0,0.3,0,0.5,0c0.3,0,0.6,0,0.9-0.1c0.3-0.1,0.5-0.2,0.6-0.4
	c0.2-0.2,0.3-0.3,0.4-0.5c0.1-0.2,0.1-0.4,0.1-0.7c0-0.2,0-0.4-0.1-0.5S88.4,26.8,88.3,26.7z M119.9,25.6c0.1,0.3,0.2,0.7,0.2,1.1
	c0,0.4-0.1,0.8-0.2,1.1c-0.1,0.3-0.3,0.6-0.5,0.8c-0.2,0.2-0.5,0.4-0.8,0.5c-0.3,0.1-0.7,0.2-1,0.2s-0.7-0.1-1.1-0.2
	c-0.3-0.1-0.6-0.3-0.8-0.5c-0.2-0.2-0.4-0.5-0.5-0.8c-0.1-0.3-0.2-0.7-0.2-1.1c0-0.4,0.1-0.8,0.2-1.1c0.1-0.3,0.3-0.6,0.5-0.8
	c0.2-0.2,0.5-0.4,0.8-0.5c0.3-0.1,0.7-0.2,1.1-0.2s0.7,0.1,1,0.2c0.3,0.1,0.6,0.3,0.8,0.5C119.6,25,119.8,25.2,119.9,25.6z
	 M118.8,26.7c0-0.6-0.1-1-0.3-1.3c-0.2-0.3-0.5-0.4-1-0.4c-0.4,0-0.8,0.1-1,0.4c-0.2,0.3-0.3,0.7-0.3,1.3s0.1,1,0.3,1.3
	c0.2,0.3,0.5,0.4,1,0.4c0.4,0,0.7-0.1,1-0.4C118.7,27.7,118.8,27.2,118.8,26.7z M94.1,25.5c0.1,0.3,0.1,0.7,0.1,1.1
	c0,0.4-0.1,0.7-0.2,1.1c-0.1,0.3-0.3,0.6-0.4,0.9c-0.2,0.2-0.4,0.4-0.7,0.6c-0.3,0.1-0.6,0.2-0.9,0.2c-0.3,0-0.5,0-0.7-0.1
	c-0.2-0.1-0.4-0.2-0.5-0.4v2.1h-1.2v-6.8h0.8c0.1,0,0.1,0,0.2,0.1c0.1,0,0.1,0.1,0.1,0.2l0.1,0.5c0.2-0.2,0.4-0.4,0.7-0.6
	c0.3-0.1,0.6-0.2,0.9-0.2c0.3,0,0.5,0.1,0.8,0.2c0.2,0.1,0.4,0.3,0.6,0.5S94,25.2,94.1,25.5z M92.9,26.6c0-0.3,0-0.6-0.1-0.8
	c0-0.2-0.1-0.4-0.2-0.5c-0.1-0.1-0.2-0.2-0.3-0.3C92.2,25,92,25,91.9,25c-0.3,0-0.5,0.1-0.7,0.2c-0.2,0.1-0.4,0.3-0.5,0.5v2.3
	c0.1,0.2,0.3,0.3,0.5,0.4c0.2,0.1,0.3,0.1,0.5,0.1c0.2,0,0.4,0,0.5-0.1c0.2-0.1,0.3-0.2,0.4-0.3c0.1-0.1,0.2-0.3,0.2-0.5
	C92.9,27.2,92.9,26.9,92.9,26.6z"/>
</svg>
